<svg width="22" height="22" viewBox="0 0 22 22" fill="none" xmlns="http://www.w3.org/2000/svg">
<path d="M8.5632 14.9038L7.75 17.75L6.9368 14.9038C6.50968 13.4089 5.34112 12.2403 3.84619 11.8132L1 11L3.84619 10.1868C5.34113 9.75968 6.50968 8.59112 6.9368 7.09619L7.75 4.25L8.5632 7.09619C8.99032 8.59113 10.1589 9.75968 11.6538 10.1868L14.5 11L11.6538 11.8132C10.1589 12.2403 8.99032 13.4089 8.5632 14.9038Z" stroke="#330A55" stroke-width="1.5" stroke-linecap="round" stroke-linejoin="round"/>
<path d="M17.0089 7.71454L16.75 8.75L16.4911 7.71454C16.1888 6.50533 15.2447 5.56117 14.0355 5.25887L13 5L14.0355 4.74113C15.2447 4.43883 16.1888 3.49467 16.4911 2.28546L16.75 1.25L17.0089 2.28546C17.3112 3.49467 18.2553 4.43883 19.4645 4.74113L20.5 5L19.4645 5.25887C18.2553 5.56117 17.3112 6.50533 17.0089 7.71454Z" stroke="#330A55" stroke-width="1.5" stroke-linecap="round" stroke-linejoin="round"/>
<path d="M15.6442 19.5673L15.25 20.75L14.8558 19.5673C14.6318 18.8954 14.1046 18.3682 13.4327 18.1442L12.25 17.75L13.4327 17.3558C14.1046 17.1318 14.6318 16.6046 14.8558 15.9327L15.25 14.75L15.6442 15.9327C15.8682 16.6046 16.3954 17.1318 17.0673 17.3558L18.25 17.75L17.0673 18.1442C16.3954 18.3682 15.8682 18.8954 15.6442 19.5673Z" stroke="#330A55" stroke-width="1.5" stroke-linecap="round" stroke-linejoin="round"/>
</svg>
