<svg width="17" height="17" viewBox="0 0 17 17" fill="none" xmlns="http://www.w3.org/2000/svg">
<g id="heroicons-mini/x-mark">
<path id="Union" d="M5.33828 4.43672C5.08932 4.18776 4.68568 4.18776 4.43672 4.43672C4.18776 4.68568 4.18776 5.08932 4.43672 5.33828L7.59844 8.5L4.43672 11.6617C4.18776 11.9107 4.18776 12.3143 4.43672 12.5633C4.68568 12.8122 5.08932 12.8122 5.33828 12.5633L8.5 9.40156L11.6617 12.5633C11.9107 12.8122 12.3143 12.8122 12.5633 12.5633C12.8122 12.3143 12.8122 11.9107 12.5633 11.6617L9.40156 8.5L12.5633 5.33828C12.8122 5.08932 12.8122 4.68568 12.5633 4.43672C12.3143 4.18776 11.9107 4.18776 11.6617 4.43672L8.5 7.59844L5.33828 4.43672Z" fill="#A1A7B6"/>
</g>
</svg>
