<svg width="16" height="16" viewBox="0 0 16 16" fill="none" xmlns="http://www.w3.org/2000/svg">
<path d="M12.6667 0H8.66667C6.82867 0 5.33333 1.49533 5.33333 3.33333V7.33333C5.33333 9.17133 6.82867 10.6667 8.66667 10.6667H12.6667C14.5047 10.6667 16 9.17133 16 7.33333V3.33333C16 1.49533 14.5047 0 12.6667 0ZM14.6667 7.33333C14.6667 8.436 13.7693 9.33333 12.6667 9.33333H8.66667C7.564 9.33333 6.66667 8.436 6.66667 7.33333V3.33333C6.66667 2.23067 7.564 1.33333 8.66667 1.33333H12.6667C13.7693 1.33333 14.6667 2.23067 14.6667 3.33333V7.33333ZM10.6667 12.6667C10.6667 14.5047 9.17133 16 7.33333 16H3.33333C1.49533 16 0 14.5047 0 12.6667V8.66667C0 6.82867 1.49533 5.33333 3.33333 5.33333C3.702 5.33333 4 5.632 4 6C4 6.368 3.702 6.66667 3.33333 6.66667C2.23067 6.66667 1.33333 7.564 1.33333 8.66667V12.6667C1.33333 13.7693 2.23067 14.6667 3.33333 14.6667H7.33333C8.436 14.6667 9.33333 13.7693 9.33333 12.6667C9.33333 12.2987 9.63133 12 10 12C10.3687 12 10.6667 12.2987 10.6667 12.6667Z" fill="black"/>
</svg>
