<svg width="97" height="82" viewBox="0 0 97 82" fill="none" xmlns="http://www.w3.org/2000/svg">
<path d="M94.2818 49.4746C93.687 48.3241 93.9149 46.713 93.7035 45.4149C93.4401 43.7961 92.7424 42.2784 91.9966 40.778C89.4521 35.6594 85.3188 31.5324 80.3333 28.1844C69.5328 20.9308 54.8137 19.3978 41.7038 20.7664C34.3881 21.5301 28.0929 24.8222 25.1674 31.2361C23.2118 35.5234 25.0698 38.3911 28.2097 41.4452C30.8454 44.0085 34.4221 47.0734 33.0548 50.9618C30.8185 57.3226 19.1184 58.2835 21.173 66.6459C24.3325 79.5054 47.3899 78.2885 57.6827 76.7079C71.0347 74.6578 96.9436 67.9439 94.4506 51.1771C94.2576 49.8793 93.7168 48.6276 93.6989 47.3013M21.6793 41.3893C21.1767 46.9421 14.2009 48.2008 9.30996 46.6978C3.30076 44.8512 2.12202 38.7191 4.713 33.7575C6.90765 29.5547 11.7629 28.2786 16.1327 30.2597C20.9938 32.4634 21.9581 37.7939 21.5928 42.4268" fill="#ECF1F9" fill-opacity="0.53"/>
<path d="M74.6453 49.0602C74.2722 49.0962 73.938 48.8219 73.9015 48.4436L72.9198 38.4865C72.7729 36.9947 71.371 35.9066 69.7959 36.0585L69.79 36.0591C69.0202 36.1334 68.3257 36.492 67.8342 37.0654C67.3507 37.6291 67.1258 38.3331 67.198 39.0506L68.104 48.2545C68.1405 48.6328 67.8681 48.9686 67.4921 49.0049C67.119 49.0409 66.7848 48.7666 66.7483 48.3883L65.8423 39.1844C65.7365 38.0884 66.0756 37.0187 66.8032 36.1669C67.5228 35.325 68.536 34.8004 69.6578 34.6891L69.6667 34.6883C71.9879 34.4643 74.0556 36.1044 74.2782 38.3494L75.2598 48.3066C75.2963 48.6848 75.0239 49.0207 74.6479 49.057L74.6453 49.0602Z" fill="#798199" fill-opacity="0.7"/>
<path d="M61.774 71.4098C59.7574 71.5382 57.8866 69.9573 57.3615 69.4699C55.4675 67.7108 52.8735 63.9301 49.206 57.5717C48.5964 56.5184 43.3788 46.2966 42.9986 45.5457C42.4267 44.636 42.2484 43.5621 42.4915 42.5196C42.7477 41.4278 43.4323 40.502 44.4214 39.9136C46.4056 38.7362 49.0112 39.3235 50.2319 41.2287L50.2643 41.2857L53.727 48.0305C53.9001 48.3686 53.7696 48.7809 53.4337 48.9546C53.0979 49.1283 52.6877 48.9965 52.5146 48.6585L49.0666 41.9423C48.233 40.6731 46.4688 40.2902 45.115 41.0942C44.4479 41.4892 43.9877 42.1077 43.8157 42.8337C43.655 43.5225 43.7773 44.2322 44.1606 44.8294L44.193 44.8864C44.2483 44.9953 49.7797 55.8361 50.3822 56.8781C53.931 63.0285 56.5167 66.816 58.2828 68.4582C59.159 69.2694 60.5041 70.1105 61.6596 70.0381L75.6665 68.6866C75.6665 68.6866 75.6961 68.6838 75.7109 68.6824C76.8182 68.5755 78.1159 67.1277 78.4768 65.9747C79.5489 62.5617 80.2793 59.7558 80.8495 55.5075C81.0193 54.2317 81.1807 50.113 81.1057 48.9329L80.4528 42.1664C80.3059 40.6746 78.8907 39.5727 77.3233 39.742C76.5535 39.8163 75.859 40.1749 75.3674 40.7483C74.884 41.312 74.659 42.016 74.7312 42.7335L75.1879 47.8687C75.2241 48.2439 74.9484 48.5771 74.5754 48.6131L74.5695 48.6137C74.1935 48.65 73.8616 48.3694 73.8281 47.9908L73.372 42.8616C73.2671 41.7746 73.6059 40.7019 74.3335 39.8501C75.0531 39.0081 76.0663 38.4835 77.1884 38.3753L77.2003 38.3741C79.5214 38.1502 81.5892 39.7903 81.8117 42.0353L82.4669 48.8256C82.5553 50.2058 82.3722 54.4408 82.2034 55.6955C81.5605 60.4919 80.6544 63.6123 79.7811 66.3929C79.3309 67.8281 77.7291 69.8704 75.8668 70.05C75.8372 70.0529 75.8076 70.0558 75.778 70.0586L61.771 71.4101L61.774 71.4098Z" fill="#798199" fill-opacity="0.7"/>
<path d="M60.3148 48.8828C59.9418 48.9188 59.6075 48.6445 59.571 48.2662L57.4428 26.7657C57.2958 25.2739 55.894 24.1858 54.3189 24.3378L54.313 24.3383C53.5432 24.4126 52.8487 24.7712 52.3571 25.3447C51.8736 25.9083 51.6487 26.6124 51.7209 27.3298L53.8046 48.2755C53.8411 48.6537 53.5688 48.9896 53.1927 49.0259C52.8197 49.0619 52.4854 48.7876 52.4489 48.4093L50.3652 27.4636C50.2595 26.3677 50.5985 25.2979 51.3262 24.4462C52.0458 23.6042 53.059 23.0796 54.1808 22.9684L54.1926 22.9672C56.5138 22.7433 58.5815 24.3834 58.8041 26.6284L60.9324 48.1289C60.9689 48.5071 60.6965 48.843 60.3205 48.8793L60.3148 48.8828Z" fill="#798199" fill-opacity="0.7"/>
<path d="M67.494 49.0558C67.121 49.0918 66.7867 48.8175 66.7502 48.4393L65.5284 36.1787C65.3815 34.6869 63.9796 33.5988 62.4045 33.7507L62.3986 33.7513C61.6288 33.8256 60.9343 34.1842 60.4428 34.7576C59.9593 35.3213 59.7344 36.0254 59.8066 36.7428L60.9553 48.4002C60.9918 48.7784 60.7194 49.1143 60.3434 49.1506C59.9703 49.1866 59.6361 48.9122 59.5996 48.534L58.4512 36.8796C58.3454 35.7836 58.6845 34.7139 59.4121 33.8621C60.1317 33.0202 61.1449 32.4956 62.2667 32.3843L62.2756 32.3835C64.5968 32.1595 66.6645 33.7996 66.8871 36.0446L68.1089 48.3052C68.1454 48.6834 67.873 49.0193 67.497 49.0556L67.494 49.0558Z" fill="#798199" fill-opacity="0.7"/>
<path d="M81.3494 23.7677L63.085 25.53C62.709 25.5663 62.3774 25.2886 62.3412 24.9134C62.305 24.5381 62.5804 24.202 62.9534 24.166L81.2178 22.4037C82.8343 22.2477 84.0213 20.7986 83.8644 19.1725L82.5397 5.44296C82.3828 3.81686 80.9407 2.62137 79.3241 2.77734L25.4192 7.97839C23.8026 8.13437 22.6157 9.58352 22.7726 11.2096L24.097 24.9362C24.2539 26.5623 25.696 27.7578 27.3125 27.6018L45.266 25.8695C45.6421 25.8333 45.9736 26.1109 46.0098 26.4861C46.0461 26.8614 45.7707 27.1976 45.3977 27.2336L27.4441 28.9658C25.0786 29.1941 22.9703 27.4436 22.741 25.067L21.4166 11.3405C21.1873 8.96385 22.9249 6.84233 25.2875 6.61438L79.1896 1.41361C81.5551 1.18537 83.6634 2.93581 83.8927 5.31241L85.2171 19.039C85.4467 21.4186 83.7088 23.5371 81.3462 23.765L81.3494 23.7677Z" fill="#798199" fill-opacity="0.7"/>
<path d="M32.3076 10.4039L33.5511 10.2839L34.7703 22.9204L33.5269 23.0404L32.3076 10.4039ZM33.7041 16.1127L41.1946 15.3899L41.3113 16.5991L33.8208 17.3218L33.7041 16.1127ZM39.961 9.66543L41.2044 9.54545L42.4237 22.182L41.1802 22.302L39.961 9.66543Z" fill="#798199" fill-opacity="0.7"/>
<path d="M44.3164 9.24518L45.5599 9.1252L46.7791 21.7617L45.5356 21.8817L44.3164 9.24518ZM45.172 9.16262L52.3872 8.46646L52.4996 9.63094L45.2844 10.3271L45.172 9.16262ZM45.7298 14.9433L51.9946 14.3389L52.1069 15.5033L45.8421 16.1078L45.7298 14.9433ZM46.2792 20.6376L53.4944 19.9415L53.6067 21.106L46.3916 21.8021L46.2792 20.6376Z" fill="#798199" fill-opacity="0.7"/>
<path d="M54.8916 8.22479L56.1351 8.10481L57.3543 20.7413L56.1108 20.8613L54.8916 8.22479ZM56.8811 19.6147L64.0696 18.9211L64.1819 20.0856L56.9934 20.7792L56.8811 19.6147Z" fill="#798199" fill-opacity="0.7"/>
<path d="M65.0381 7.24585L66.2816 7.12587L67.5008 19.7624L66.2573 19.8824L65.0381 7.24585ZM66.5782 13.7313L70.5959 13.3437C71.0844 13.2966 71.5057 13.1417 71.8599 12.8791C72.2141 12.6164 72.4708 12.273 72.636 11.8483C72.8012 11.4235 72.8594 10.943 72.808 10.4099C72.7565 9.87679 72.6067 9.4073 72.363 9.01899C72.1194 8.63069 71.7985 8.34002 71.4036 8.14967C71.0057 7.9596 70.5655 7.88785 70.074 7.93527L66.0564 8.32292L65.9441 7.15844L69.9025 6.77651C70.6515 6.70423 71.3273 6.80135 71.9268 7.06815C72.5292 7.33467 73.014 7.74479 73.3845 8.30122C73.7549 8.85764 73.977 9.51856 74.0515 10.2899C74.1259 11.0613 74.0333 11.7435 73.7758 12.3575C73.5183 12.9715 73.1206 13.4638 72.5802 13.8406C72.0398 14.2174 71.3981 14.4416 70.649 14.5139L66.6906 14.8958L66.5782 13.7313Z" fill="#798199" fill-opacity="0.7"/>
</svg>
