<svg width="80" height="80" viewBox="0 0 77 79" fill="none" xmlns="http://www.w3.org/2000/svg">
<path d="M58.8686 70.6112C58.8686 71.6095 44.8461 75.7659 35.3375 71.4812C33.1472 70.4937 33.4533 71.4229 30.9668 71.5997C26.6652 71.9058 21.7988 71.5009 21.7988 70.6596C21.7988 69.8182 27.0168 69.1724 30.4227 69.205C34.7993 69.2474 40.0804 68.1276 45.9857 68.1276C56.9291 68.1276 58.8686 69.6128 58.8686 70.6112Z" fill="#121212"/>
<path d="M47.6614 70.3831H48.6834V48.2394H47.6614V70.3831Z" fill="white"/>
<path d="M48.827 70.5263H47.5176V48.0962H48.827V70.5263ZM47.8049 70.2399H48.5396V48.3875H47.8049V70.2399Z" fill="#121212"/>
<path d="M45.2188 70.3149C46.0282 69.5828 47.0807 69.1775 48.172 69.1775C49.2632 69.1775 50.3157 69.5828 51.1251 70.3149C51.6109 70.9242 45.0549 71.2392 45.2188 70.3149Z" fill="white"/>
<path d="M47.8795 71.0398C46.8476 71.0398 45.869 70.95 45.4197 70.7515C45.0948 70.6073 45.0543 70.4207 45.077 70.2893L45.0859 70.241L45.1224 70.2084C45.9578 69.4517 47.0447 69.0327 48.1718 69.0327C49.299 69.0327 50.3858 69.4517 51.2212 70.2084L51.237 70.2252C51.2714 70.2669 51.2902 70.3193 51.2902 70.3733C51.2902 70.4273 51.2714 70.4797 51.237 70.5214C50.9911 70.8493 49.3795 71.0398 47.8795 71.0398ZM45.3683 70.3733C45.4166 70.4287 45.4786 70.4705 45.548 70.4947C46.655 70.9678 50.528 70.712 50.9793 70.3802C50.2033 69.6983 49.206 69.3217 48.1731 69.3205C47.1402 69.3192 46.1419 69.6934 45.3644 70.3733H45.3683Z" fill="#121212"/>
<path d="M51.483 48.0853C51.0698 48.5569 50.5607 48.9348 49.9896 49.1936C49.4186 49.4525 48.7989 49.5864 48.1719 49.5864C47.545 49.5864 46.9252 49.4525 46.3542 49.1936C45.7832 48.9348 45.274 48.5569 44.8608 48.0853H51.483Z" fill="white"/>
<path d="M51.3351 48.037C50.7171 48.7397 49.8892 49.2244 48.974 49.4195C48.035 49.6138 47.0577 49.4758 46.209 49.0294C45.7522 48.7856 45.3428 48.4619 45.0003 48.0735L44.8848 48.1722H51.5069C51.5534 48.1722 51.6501 48.1643 51.6353 48.0952C51.6205 48.0261 51.501 48.0044 51.4507 48.0044H44.8324C44.79 48.0044 44.6497 48.0281 44.7169 48.1031C46.0994 49.6663 48.4546 50.1285 50.318 49.1647C50.8149 48.906 51.2598 48.5578 51.6304 48.1377C51.7074 48.0498 51.4072 47.955 51.3351 48.037Z" fill="#121212"/>
<path d="M38.4329 48.0043H58.5492V46.5754H38.4329V48.0043Z" fill="white"/>
<path d="M58.6916 48.1486H38.2878V46.4333H58.6916V48.1486ZM38.5752 47.8612H58.4052V46.7197H38.5752V47.8612Z" fill="#121212"/>
<path d="M21.4844 50.5966L21.4636 50.565C21.5732 50.49 21.6799 50.4208 21.7895 50.3537L21.8092 50.3863C21.6996 50.4524 21.594 50.5216 21.4844 50.5966Z" fill="#E70070"/>
<path d="M18.1054 52.8924L18.0896 52.8578H18.1014L18.1123 52.8529C19.2716 52.3157 19.9194 51.7854 20.5475 51.2729C20.7746 51.0872 20.9889 50.9115 21.2259 50.7367L21.2486 50.7673C21.0136 50.9411 20.7993 51.1159 20.5732 51.3005C19.9412 51.813 19.2855 52.3493 18.1054 52.8924Z" fill="#E70070"/>
<path d="M16.8207 53.3861C20.5051 52.1024 20.4004 50.793 23.042 49.76C25.328 48.8644 27.0038 48.978 28.334 49.2308C34.7379 50.5807 37.4822 51.6886 39.8443 53.716C45.2054 58.3197 36.8877 66.9771 37.4012 67.6842C37.9147 68.3912 38.4874 69.3629 39.2142 69.7303C39.5105 69.8804 39.7919 70.0137 40.0349 70.1253C40.2215 70.2112 40.1613 70.7089 39.9568 70.7099C39.5727 70.7099 38.3522 70.7099 38.3522 70.7099C37.4348 70.7099 36.5924 69.6029 35.8518 69.2908C35.1112 68.9788 36.1352 67.9409 36.1352 67.4906C36.1352 64.7315 36.5045 59.48 34.4219 59.0317C30.6427 58.219 27.064 59.6706 23.0657 59.5877C19.2144 59.5086 15.3483 57.6749 13.4573 53.948C13.4563 53.9471 14.3687 54.2443 16.8207 53.3861Z" fill="white"/>
<path d="M39.3539 70.8541H38.3486C37.7315 70.8541 37.1557 70.3999 36.6472 69.9999C36.344 69.76 36.0547 69.5338 35.793 69.4232C35.7187 69.3964 35.6512 69.3538 35.5949 69.2984C35.5386 69.243 35.4951 69.1761 35.4671 69.1023C35.3565 68.7883 35.5659 68.4051 35.7634 68.0348C35.8759 67.8245 35.9925 67.6072 35.9925 67.4907C35.9925 67.151 35.9974 66.7738 36.0033 66.3748C36.0438 63.6533 36.1021 59.5403 34.3917 59.172C32.1876 58.698 30.0744 59.0002 27.8367 59.3201C26.3021 59.5393 24.7162 59.7655 23.0651 59.7319C21.1046 59.7036 19.1804 59.1994 17.4581 58.2625C15.6881 57.2925 14.2504 55.8132 13.3313 54.0162L13.1753 53.7081L13.5031 53.8148C13.511 53.8148 14.4215 54.0784 16.7757 53.2549C18.7902 52.5508 19.6464 51.8516 20.4739 51.1752C21.1503 50.6222 21.7893 50.1008 22.9891 49.6308C25.3591 48.7015 27.106 48.8556 28.3601 49.0945C34.6979 50.4296 37.5103 51.5277 39.9375 53.6114C41.7101 55.1341 42.2157 57.276 41.4395 59.9788C40.7967 62.2194 39.3984 64.4225 38.477 65.882C37.9922 66.6454 37.4895 67.4344 37.5251 67.6102C37.6169 67.7356 37.7097 67.8699 37.8055 68.0052C38.2341 68.6214 38.719 69.3195 39.2868 69.6029C39.5485 69.7353 39.823 69.8666 40.1034 69.9979C40.2871 70.0819 40.3256 70.3307 40.2832 70.5263C40.2407 70.7218 40.1182 70.8541 39.9662 70.8561L39.3539 70.8541ZM31.9477 58.6377C32.789 58.6328 33.6286 58.7175 34.452 58.8905C36.3954 59.3083 36.3341 63.3945 36.2907 66.3778C36.2848 66.7728 36.2788 67.152 36.2788 67.4897C36.2788 67.6783 36.1574 67.9054 36.0162 68.1691C35.8631 68.4555 35.6715 68.811 35.7407 69.0055C35.7558 69.0414 35.7785 69.0736 35.8073 69.0999C35.8362 69.1262 35.8703 69.1458 35.9075 69.1576C36.2038 69.284 36.5089 69.522 36.8279 69.7728C37.3216 70.1678 37.8332 70.5628 38.3526 70.5628C38.3644 70.5628 39.5771 70.5628 39.9553 70.5628C39.9854 70.5129 40.0021 70.4561 40.0037 70.3979C40.0115 70.3472 40.0009 70.2954 39.9741 70.2517C39.6926 70.1224 39.4142 69.989 39.1495 69.8567C38.5224 69.5407 38.0149 68.811 37.5695 68.1661C37.4708 68.0279 37.3799 67.8936 37.2881 67.7711C37.1093 67.5252 37.3918 67.0542 38.2331 65.727C40.1291 62.7398 43.6574 57.1802 39.7529 53.8286C37.3631 51.7776 34.5823 50.6953 28.3018 49.375C27.0131 49.1301 25.3828 49.0007 23.0918 49.8974C21.9344 50.3506 21.3143 50.8592 20.6536 51.3964C19.8064 52.0876 18.9304 52.8046 16.8685 53.5264C15.1483 54.1278 14.1667 54.1693 13.7164 54.1357C14.6144 55.7712 15.9603 57.1165 17.5963 58.0136C19.2773 58.9275 21.155 59.4195 23.0681 59.4475C24.6955 59.4811 26.2705 59.2559 27.7933 59.0387C29.2064 58.8333 30.5711 58.6377 31.9447 58.6377H31.9477Z" fill="#121212"/>
<path d="M26.5986 49.0502C26.5986 49.0502 22.6693 46.0176 22.9034 44.4889C22.9034 44.4889 27.04 48.5683 30.7747 48.8339C33.0203 48.9949 34.0809 48.8912 37.0947 48.0311C38.6589 48.8853 39.8281 50.3023 39.8281 51.4942C39.8281 51.9258 39.6356 52.5578 39.3344 53.2964C36.9328 51.5555 32.5493 49.7553 26.5986 49.0502Z" fill="#121212"/>
<path d="M29.4559 67.1499C28.7231 68.015 28.2867 68.6391 28.4377 68.7793C29.0628 69.359 31.4723 70.3731 31.4723 70.3731C31.508 70.3961 31.5352 70.43 31.5501 70.4697C31.5651 70.5095 31.5667 70.5529 31.555 70.5937C31.5432 70.6345 31.5186 70.6704 31.485 70.6961C31.4512 70.7218 31.4101 70.736 31.3677 70.7365C31.3677 70.7365 30.5401 70.78 29.8044 70.7365C29.3719 70.7118 29.0855 70.5923 28.7113 70.5923C28.0505 70.597 27.3909 70.6445 26.7363 70.7345C26.6531 70.7346 26.5712 70.7149 26.4973 70.677C26.4233 70.639 26.3596 70.5839 26.3113 70.5162C26.2629 70.4486 26.2315 70.3704 26.2195 70.2881C26.2076 70.2058 26.2155 70.1219 26.2425 70.0433C26.3926 69.6039 26.76 69.0825 27.0098 68.3448C27.1905 67.8155 27.3851 67.224 27.5865 66.5999L29.4559 67.1499Z" fill="white"/>
<path d="M30.5137 70.9025C30.2866 70.9025 30.0377 70.8976 29.7997 70.8837C29.6115 70.871 29.4244 70.8449 29.2398 70.8057C29.0676 70.7668 28.8919 70.7446 28.7154 70.7396C28.0617 70.743 27.409 70.7888 26.7612 70.8768H26.7404C26.6349 70.8769 26.5309 70.8518 26.437 70.8037C26.3432 70.7556 26.2621 70.6857 26.2006 70.6C26.1391 70.5143 26.0989 70.4152 26.0834 70.3108C26.0679 70.2064 26.0775 70.0999 26.1114 69.9999C26.1943 69.7755 26.2933 69.5573 26.4077 69.3472C26.5895 69.0108 26.7456 68.6613 26.8747 68.3014C27.0426 67.8077 27.2362 67.2211 27.4495 66.5585L27.4929 66.4252L29.7049 67.071L29.5617 67.2399C28.6542 68.3123 28.5515 68.6095 28.5486 68.6856C29.1717 69.2435 31.5022 70.228 31.5259 70.2379L31.5466 70.2488C31.6087 70.2883 31.6563 70.3469 31.6823 70.4158C31.7084 70.4847 31.7113 70.5601 31.6909 70.6308C31.6704 70.7015 31.6276 70.7638 31.5688 70.8081C31.5101 70.8524 31.4385 70.8765 31.3649 70.8768C31.3649 70.8768 30.9847 70.9025 30.5137 70.9025ZM28.7154 70.4532C28.9102 70.4577 29.1039 70.4812 29.2941 70.5233C29.4662 70.5605 29.6408 70.5853 29.8165 70.5974C30.5364 70.6378 31.356 70.5974 31.3639 70.5974C31.3768 70.5992 31.3899 70.5965 31.4009 70.5894C31.4117 70.5823 31.4197 70.5714 31.4232 70.5589C31.4266 70.5492 31.427 70.5386 31.4242 70.5286C31.4213 70.5188 31.4155 70.51 31.4074 70.5036C31.1901 70.4117 28.9623 69.4617 28.3461 68.889C28.1634 68.7191 28.2474 68.3863 29.2102 67.23L27.6884 66.7856C27.4909 67.4018 27.3142 67.9311 27.1552 68.4002C27.0217 68.774 26.8599 69.1371 26.6713 69.4864C26.5625 69.6838 26.4678 69.8888 26.3879 70.0997C26.3688 70.1557 26.3632 70.2154 26.3715 70.274C26.3797 70.3326 26.4017 70.3884 26.4355 70.437C26.4694 70.4855 26.5141 70.5254 26.5662 70.5534C26.6184 70.5815 26.6764 70.5969 26.7355 70.5983C27.3903 70.5064 28.0504 70.4566 28.7115 70.4492L28.7154 70.4532Z" fill="#121212"/>
<path d="M27.8149 29.465C27.1553 28.6069 26.9795 26.5075 28.6938 25.6612C31.3008 24.3774 34.4974 27.7448 32.7791 29.6368C32.0247 30.4683 32.8008 31.3956 32.5875 31.7698C32.3742 32.1441 32.0503 31.9782 31.8123 32.1145C31.3838 32.3604 31.128 32.9677 30.4239 33.1257C29.6517 33.2995 29.1915 32.4868 28.9427 32.4107C28.1971 32.1856 26.071 32.8482 27.2807 35.867C21.7991 36.4387 19.99 33.18 19.99 33.18C21.7458 32.2024 23.8847 33.2906 27.8149 29.465Z" fill="white"/>
<path d="M26.0278 36.0735C23.8622 36.0735 22.3938 35.4424 21.5011 34.8598C20.3477 34.1073 19.8836 33.2887 19.8648 33.2541L19.7947 33.1287L19.9201 33.0586C20.4978 32.7357 21.0992 32.631 21.7963 32.5106C23.2351 32.2607 25.0225 31.9506 27.6226 29.4493C27.2414 28.8746 27.0972 27.9858 27.272 27.2343C27.3531 26.8663 27.5173 26.5217 27.7522 26.2269C27.987 25.9321 28.2862 25.6951 28.6269 25.5339C28.9877 25.358 29.3803 25.2566 29.7813 25.2356C30.1822 25.2148 30.5832 25.2749 30.9603 25.4124C31.6877 25.6689 32.3245 26.1322 32.7922 26.7455C33.5772 27.7864 33.6118 28.9319 32.882 29.7347C32.4515 30.2097 32.5759 30.7074 32.6845 31.1458C32.7536 31.4213 32.8129 31.6583 32.7072 31.843C32.5344 32.1472 32.2856 32.1728 32.1039 32.1906C32.0265 32.1922 31.9503 32.2094 31.8797 32.241C31.7282 32.3408 31.5914 32.4611 31.4729 32.5984C31.2201 32.8611 30.9347 33.1584 30.4508 33.268C29.8336 33.4062 29.4031 33.0023 29.1187 32.7337C29.0524 32.6633 28.9773 32.6016 28.8955 32.5501C28.5834 32.4513 27.9169 32.5422 27.4755 33.025C27.0992 33.4358 26.7842 34.2525 27.4083 35.8108L27.4784 35.9875L27.2898 36.0073C26.8705 36.051 26.4493 36.0731 26.0278 36.0735ZM20.1956 33.2383C20.5906 33.8101 22.5103 36.1515 27.0785 35.7377C26.4919 34.1577 26.8523 33.2838 27.2681 32.8295C27.7994 32.2489 28.5903 32.1551 28.9834 32.2736C29.1122 32.3322 29.2273 32.4173 29.3211 32.5234C29.5749 32.7634 29.9235 33.0922 30.3925 32.9855C30.7925 32.8957 31.0354 32.6429 31.2704 32.398C31.4072 32.2403 31.5659 32.103 31.7415 31.9901C31.8468 31.9373 31.9624 31.9077 32.0802 31.9032C32.2441 31.8865 32.3636 31.8746 32.4633 31.6998C32.5117 31.6139 32.4633 31.4194 32.411 31.214C32.2964 30.7558 32.1394 30.1277 32.6737 29.5402C33.4281 28.7097 33.1131 27.6402 32.567 26.9154C31.4808 25.4776 29.8297 25.2603 28.7582 25.7896C28.4553 25.932 28.1888 26.142 27.9797 26.4034C27.7705 26.6649 27.624 26.9707 27.5515 27.2975C27.354 28.1389 27.6078 28.9654 27.9248 29.3772L28.0028 29.476L27.9109 29.5658C25.1953 32.2094 23.3349 32.5283 21.8408 32.791C21.2315 32.8996 20.6933 32.9934 20.1956 33.2383Z" fill="#121212"/>
<path d="M19.9897 33.18C19.9897 33.18 21.7988 36.4388 27.2794 35.8581C28.258 38.5382 29.2652 40.5162 31.7942 42.664C32.3834 43.1585 33.0381 43.5692 33.7396 43.8845C37.1751 45.4339 37.2739 43.6051 41.7551 44.1482C44.608 44.4938 45.3714 45.669 45.2993 46.1232H43.2966C42.9138 45.7914 42.4267 45.6045 41.9201 45.5949C40.9385 45.5949 39.4572 46.5686 38.1192 47.3803C34.498 49.5785 30.2824 48.9188 28.7438 48.2888C25.9542 47.1462 22.9028 44.481 22.9028 44.481C22.9028 46.5686 26.598 49.0422 26.598 49.0422C24.9963 49.0738 24.1826 49.301 23.043 49.7523C20.4074 50.7921 20.5091 52.0907 16.8218 53.3784C14.3698 54.2365 13.4573 53.9393 13.4573 53.9393C12.5528 52.0818 11.7095 49.5222 11.7095 46.6011C11.7085 41.08 16.2688 35.7337 19.9897 33.18Z" fill="white"/>
<path d="M13.9572 54.1407C13.7737 54.1484 13.59 54.129 13.4121 54.0834L13.3548 54.0646L13.3281 54.0103C12.5243 52.3602 11.5654 49.7364 11.5654 46.6041C11.5654 41.2271 15.8907 35.8147 19.9088 33.0605L20.133 32.9075V33.1395C20.3305 33.4614 22.2304 36.2442 27.2647 35.7149L27.3763 35.7031L27.4148 35.8087C28.426 38.5787 29.4382 40.4737 31.8872 42.5534C32.4656 43.0399 33.1091 43.4434 33.799 43.7522C35.6604 44.5925 36.5008 44.4217 37.6621 44.1847C38.5933 43.9961 39.7507 43.7601 41.7721 44.005C44.0097 44.2756 44.8807 45.0261 45.2007 45.4497C45.3843 45.6936 45.4722 45.9484 45.4416 46.1488L45.4219 46.2693H43.2434L43.203 46.2348C42.8457 45.9256 42.3916 45.7509 41.9192 45.741C41.0749 45.741 39.8129 46.5132 38.5933 47.2608L38.1934 47.5047C34.745 49.5972 30.5333 49.1785 28.6887 48.4231C26.3878 47.482 23.8894 45.4931 23.0777 44.8197C23.4362 46.7334 26.6426 48.902 26.6771 48.9247L27.0554 49.1785L26.6001 49.1874C25.0369 49.219 24.2538 49.4283 23.0905 49.8875C21.9273 50.3467 21.313 50.8493 20.6573 51.3865C19.8101 52.0778 18.9332 52.7937 16.8673 53.5166C15.4048 54.033 14.4805 54.1407 13.9572 54.1407ZM13.5562 53.8188C13.7834 53.8602 14.7412 53.959 16.7735 53.247C18.791 52.5419 19.6481 51.8418 20.4776 51.1663C21.1531 50.6153 21.791 50.0949 22.9869 49.6229C24.0494 49.2032 24.8384 48.979 26.1666 48.9168C25.2275 48.2256 22.7597 46.2506 22.7597 44.4849V44.1699L22.9977 44.3773C23.0283 44.4039 26.059 47.0435 28.7983 48.1594C30.0011 48.6531 34.2829 49.5419 38.0452 47.2618L38.4402 47.0178C39.6944 46.2496 40.991 45.4556 41.9162 45.4556C42.4415 45.4627 42.9483 45.6507 43.3511 45.9879H45.1533C45.1201 45.8561 45.0588 45.7332 44.9735 45.6274C44.7385 45.3164 43.9515 44.5619 41.7395 44.2943C39.7645 44.0553 38.6782 44.2765 37.7213 44.4711C36.5521 44.7091 35.6288 44.8967 33.6835 44.0188C32.9674 43.6991 32.2995 43.2813 31.6986 42.7775C29.2298 40.683 28.1969 38.7762 27.1808 36.0161C23.8203 36.34 21.8236 35.2538 20.7373 34.2742C20.4391 34.0108 20.1739 33.7124 19.9473 33.3854C16.024 36.1228 11.8498 41.3891 11.8498 46.608C11.8498 49.6436 12.7712 52.1973 13.5562 53.8188Z" fill="#121212"/>
<path d="M38.4567 65.578L36.463 65.0764L36.1825 65.0053C36.062 64.9756 36.0107 65.1613 36.1312 65.1909L38.1259 65.6926L38.4064 65.7627C38.4287 65.7635 38.4505 65.7567 38.4685 65.7435C38.4865 65.7303 38.4994 65.7113 38.5052 65.6898C38.511 65.6684 38.5095 65.6455 38.5007 65.625C38.4919 65.6045 38.4764 65.5876 38.4567 65.577V65.578Z" fill="#121212"/>
<path d="M31.0962 42.107C30.6616 42.3353 30.2583 42.6187 29.8964 42.9503C29.0612 43.6712 28.4136 44.5841 28.0092 45.6106C27.7191 46.3752 27.5715 47.1866 27.5738 48.0043C27.5738 48.0305 27.5841 48.0557 27.6027 48.0741C27.6212 48.0927 27.6463 48.1031 27.6725 48.1031C27.6987 48.1031 27.7239 48.0927 27.7423 48.0741C27.7609 48.0557 27.7713 48.0305 27.7713 48.0043C27.7658 46.6772 28.1719 45.381 28.9335 44.2943C29.4317 43.5946 30.0555 42.9935 30.7733 42.5217C30.908 42.4305 31.0482 42.3473 31.1929 42.2729C31.3045 42.2176 31.2068 42.0517 31.0942 42.107H31.0962Z" fill="#121212"/>
<path d="M30.8453 41.8434C30.2834 41.9758 29.7818 42.3036 29.3503 42.6858C28.924 43.0809 28.558 43.5363 28.264 44.0377C27.9712 44.5394 27.7321 45.0707 27.551 45.6226C27.5066 45.7618 27.4602 45.8991 27.4177 46.0383L27.3081 46.461C27.2903 46.5321 27.2696 46.6012 27.2548 46.6723L27.2123 46.8866L27.1274 47.3152L26.845 47.2638L26.9437 46.8274L26.9931 46.6101C27.0099 46.537 27.0326 46.4659 27.0523 46.3948L27.1758 45.9643C27.2232 45.8231 27.2745 45.6828 27.3229 45.5426C27.5246 44.9802 27.7851 44.4407 28.1001 43.933C28.4159 43.4242 28.8049 42.9648 29.2545 42.5693C29.7107 42.1861 30.2341 41.8602 30.8295 41.7358L30.8453 41.8434Z" fill="#121212"/>
<path d="M22.3014 35.7979C21.7352 35.5619 21.197 35.2639 20.6967 34.9091C20.1918 34.5513 19.742 34.1215 19.3616 33.6333L19.4978 33.5345C19.8489 34.0287 20.2708 34.4687 20.75 34.84C21.2309 35.2149 21.7522 35.5349 22.3043 35.7939L22.3014 35.7979Z" fill="#121212"/>
<path d="M27.4703 36.3755C26.868 36.5601 26.2396 36.6448 25.6099 36.6264V36.5888C26.2279 36.5675 26.8383 36.4455 27.417 36.2274L27.4703 36.3755Z" fill="#121212"/>
<path d="M23.7858 42.7222C24.6585 42.7222 25.3658 42.0149 25.3658 41.1422C25.3658 40.2696 24.6585 39.5622 23.7858 39.5622C22.9132 39.5622 22.2058 40.2696 22.2058 41.1422C22.2058 42.0149 22.9132 42.7222 23.7858 42.7222Z" fill="#66A8F7"/>
<path d="M19.9285 38.2636C20.6719 38.2636 21.2744 37.661 21.2744 36.9176C21.2744 36.1742 20.6719 35.5716 19.9285 35.5716C19.1851 35.5716 18.5825 36.1742 18.5825 36.9176C18.5825 37.661 19.1851 38.2636 19.9285 38.2636Z" fill="#66A8F7"/>
<path d="M18.098 47.4168C18.8081 47.4168 19.3837 46.8411 19.3837 46.131C19.3837 45.4209 18.8081 44.8453 18.098 44.8453C17.3879 44.8453 16.8123 45.4209 16.8123 46.131C16.8123 46.8411 17.3879 47.4168 18.098 47.4168Z" fill="#66A8F7"/>
<path d="M14.8007 43.8608C15.4289 43.8608 15.9383 43.3515 15.9383 42.7232C15.9383 42.095 15.4289 41.5856 14.8007 41.5856C14.1724 41.5856 13.6631 42.095 13.6631 42.7232C13.6631 43.3515 14.1724 43.8608 14.8007 43.8608Z" fill="#66A8F7"/>
<path d="M22.6813 47.5018C23.0527 47.5018 23.3538 47.2007 23.3538 46.8293C23.3538 46.4579 23.0527 46.1568 22.6813 46.1568C22.3099 46.1568 22.0088 46.4579 22.0088 46.8293C22.0088 47.2007 22.3099 47.5018 22.6813 47.5018Z" fill="#66A8F7"/>
<path d="M18.4689 42.6018C18.8403 42.6018 19.1414 42.3007 19.1414 41.9293C19.1414 41.5579 18.8403 41.2568 18.4689 41.2568C18.0975 41.2568 17.7964 41.5579 17.7964 41.9293C17.7964 42.3007 18.0975 42.6018 18.4689 42.6018Z" fill="#66A8F7"/>
<path d="M25.8434 44.8829C26.3107 44.8829 26.6896 44.5039 26.6896 44.0366C26.6896 43.5692 26.3107 43.1903 25.8434 43.1903C25.376 43.1903 24.9971 43.5692 24.9971 44.0366C24.9971 44.5039 25.376 44.8829 25.8434 44.8829Z" fill="#66A8F7"/>
<path d="M14.801 50.8167C15.5171 50.8167 16.0976 50.2363 16.0976 49.5202C16.0976 48.8041 15.5171 48.2236 14.801 48.2236C14.0849 48.2236 13.5044 48.8041 13.5044 49.5202C13.5044 50.2363 14.0849 50.8167 14.801 50.8167Z" fill="#66A8F7"/>
<path d="M26.9815 39.5948C27.3873 39.5948 27.7162 39.2659 27.7162 38.8601C27.7162 38.4543 27.3873 38.1254 26.9815 38.1254C26.5758 38.1254 26.2468 38.4543 26.2468 38.8601C26.2468 39.2659 26.5758 39.5948 26.9815 39.5948Z" fill="#66A8F7"/>
<path d="M28.0185 48.8654C27.3854 48.651 26.725 48.5273 26.0573 48.4981C25.3908 48.4648 24.7229 48.5213 24.0714 48.6659C23.9105 48.7064 23.7465 48.737 23.5895 48.7933L23.3515 48.8684L23.233 48.9069L23.1175 48.9533C22.9644 49.0185 22.8064 49.0738 22.6573 49.1508L22.4351 49.2614L22.2189 49.375C21.6402 49.7068 21.0892 50.0909 20.5401 50.4721C19.9911 50.8533 19.4401 51.2433 18.8792 51.6156C18.3188 51.9995 17.7299 52.3399 17.1175 52.6337C16.4949 52.9056 15.8456 53.1112 15.18 53.247C14.5121 53.3862 13.8277 53.4291 13.1477 53.3743L13.1665 53.2233C13.4956 53.2442 13.8259 53.2376 14.154 53.2035C14.4857 53.1733 14.8154 53.1242 15.1415 53.0564C15.7923 52.9196 16.4275 52.7171 17.0375 52.452C17.6409 52.1672 18.2219 51.8371 18.7755 51.4645C19.3364 51.0991 19.8884 50.717 20.4434 50.3388C20.9983 49.9606 21.5563 49.5823 22.1468 49.2525L22.37 49.1311L22.5991 49.0195C22.7531 48.9464 22.9131 48.8911 23.0701 48.8269L23.1886 48.7805L23.3101 48.742L23.553 48.6669C23.713 48.6116 23.8808 48.582 24.0467 48.5425C24.7096 48.4004 25.389 48.3519 26.0652 48.3983C26.7411 48.4399 27.4078 48.5772 28.0451 48.8062L28.0185 48.8654Z" fill="#121212"/>
<path d="M34.4196 59.0308C34.9953 59.1542 35.3834 59.646 35.6441 60.3491C34.1412 62.1138 30.9851 65.3419 29.4565 67.15L27.5901 66.6049C28.4216 64.0295 29.2688 60.596 29.7764 58.9192C31.3189 58.7464 32.8515 58.6941 34.4196 59.0308Z" fill="#121212"/>
<path d="M29.5057 67.3119L27.4082 66.6997L27.4526 66.5575C27.9632 64.9775 28.4717 63.1012 28.9211 61.4462C29.2015 60.4132 29.4434 59.5215 29.639 58.8787L29.6666 58.7878L29.7604 58.7779C31.0353 58.6367 32.7229 58.5222 34.4491 58.8935C35.0307 59.0189 35.4781 59.4929 35.7783 60.3026L35.8069 60.3817L35.7526 60.4448C35.0199 61.304 33.9227 62.4811 32.7614 63.7283C31.5764 65.0012 30.349 66.3175 29.5649 67.2438L29.5057 67.3119ZM27.7716 66.5071L29.4069 66.9841C30.1969 66.0578 31.3928 64.7731 32.5511 63.5278C33.6324 62.3675 34.7493 61.1687 35.479 60.3184C35.2144 59.646 34.8569 59.2697 34.3928 59.169C32.7466 58.8155 31.134 58.9132 29.8908 59.0475C29.7002 59.6825 29.4681 60.5387 29.1995 61.5163C28.7611 63.1328 28.2683 64.9498 27.7716 66.5071Z" fill="#121212"/>
<path d="M19.684 52.3641C19.9731 52.8707 20.3296 53.3357 20.7435 53.7466C21.1572 54.1549 21.6291 54.4996 22.1438 54.7696C22.6615 55.0322 23.2098 55.2292 23.7762 55.3562C24.3435 55.4802 24.9209 55.5523 25.5013 55.5715C26.6636 55.6149 27.8249 55.4846 28.9783 55.3236C29.557 55.2426 30.1366 55.1646 30.7173 55.0994C31.0076 55.0639 31.2989 55.0392 31.5902 55.0096C31.8816 54.98 32.1739 54.9612 32.4671 54.9503C33.0539 54.9143 33.6425 54.9232 34.2279 54.977C34.8215 55.0222 35.4027 55.1709 35.9451 55.4164C36.4873 55.681 36.9428 56.0944 37.2585 56.6083C37.5701 57.1145 37.7938 57.6697 37.9201 58.2506C38.0505 58.8254 38.1213 59.4121 38.1314 60.0014C38.144 60.5886 38.1159 61.1758 38.0475 61.7591C37.9178 62.923 37.6718 64.071 37.3128 65.1858L37.2822 65.1759C37.5963 64.0539 37.8098 62.9062 37.9201 61.7463C37.9762 61.1681 37.9944 60.5869 37.9744 60.0063C37.9611 59.4274 37.8883 58.8513 37.7572 58.2871C37.6321 57.7253 37.4126 57.1888 37.1084 56.7002L36.9919 56.5205L36.8586 56.3546C36.7706 56.243 36.6731 56.1393 36.5672 56.0445C36.5416 56.0208 36.5179 55.9941 36.4902 55.9724L36.4053 55.9082L36.2354 55.7798C36.1772 55.7393 36.113 55.7077 36.0528 55.6712C35.9925 55.6347 35.9313 55.5962 35.8661 55.5665C35.3427 55.3285 34.7821 55.1829 34.2091 55.136C33.6313 55.0822 33.0504 55.0722 32.4711 55.1064C31.3088 55.1577 30.1524 55.3157 28.9951 55.4668C27.8377 55.6179 26.6666 55.7403 25.4934 55.688C24.9062 55.6636 24.3225 55.586 23.7495 55.4559C23.1762 55.3217 22.6227 55.1143 22.1023 54.8387C21.5852 54.5587 21.1127 54.2032 20.7001 53.7841C20.289 53.3653 19.9363 52.893 19.6514 52.3799L19.684 52.3641Z" fill="#121212"/>
<path d="M19.4219 53.0396C19.7013 53.5248 20.0324 53.9785 20.4094 54.3924C21.162 55.223 22.1301 55.8286 23.206 56.1423C23.7409 56.2969 24.2908 56.3936 24.8463 56.4306C25.9592 56.5136 27.0761 56.3931 28.1811 56.2331C29.2861 56.0732 30.398 55.8915 31.5168 55.7838C32.0758 55.7242 32.6375 55.6944 33.1995 55.6949C33.7679 55.6905 34.3344 55.7613 34.8842 55.9053C35.1603 55.9817 35.4258 56.0925 35.6742 56.2351C35.9243 56.3817 36.1496 56.567 36.3418 56.7842C36.5273 57.0025 36.6883 57.2406 36.8217 57.4942C36.9567 57.745 37.0716 58.0062 37.1653 58.2753C37.5396 59.3517 37.6077 60.506 37.5179 61.6259C37.4733 62.187 37.3916 62.7445 37.273 63.2947C37.1588 63.8451 37.0077 64.3871 36.8207 64.9172L36.7911 64.9063C37.1164 63.8373 37.3191 62.7347 37.3954 61.6199C37.4307 61.0642 37.4214 60.5064 37.3678 59.9521C37.3162 59.3999 37.1978 58.8561 37.0152 58.3326C36.9228 58.0725 36.8098 57.8202 36.6775 57.5781C36.548 57.3365 36.3933 57.1091 36.2164 56.8997C36.0373 56.6958 35.8266 56.5221 35.5923 56.3852C35.3554 56.2485 35.1023 56.1424 34.8388 56.0692C34.3032 55.9285 33.7514 55.8585 33.1976 55.8608C32.6399 55.8573 32.0826 55.8833 31.5277 55.9388C30.4148 56.0376 29.3088 56.2154 28.1978 56.3763C27.0869 56.5373 25.9592 56.6429 24.8334 56.5491C24.2701 56.5063 23.7129 56.4034 23.1715 56.242C22.6311 56.0754 22.1158 55.8363 21.6399 55.531C21.1677 55.222 20.7388 54.8517 20.364 54.43C19.9921 54.0077 19.6669 53.5465 19.3943 53.0544L19.4219 53.0396Z" fill="#121212"/>
<path d="M28.1326 31.5082C28.1334 31.6613 28.182 31.8103 28.2719 31.9342C28.3617 32.0582 28.4881 32.151 28.6332 32.1995C28.7862 32.2465 28.9495 32.2482 29.1036 32.2047C29.2575 32.161 29.3957 32.0738 29.5012 31.9536C29.6033 31.8361 29.6653 31.6894 29.6784 31.5345C29.6915 31.3795 29.6551 31.2244 29.5743 31.0915C29.4896 30.9618 29.3674 30.861 29.224 30.8026C29.0805 30.7443 28.9227 30.7309 28.7715 30.7646C28.5968 30.7985 28.4387 30.8903 28.3228 31.0253C28.2067 31.1603 28.1398 31.3305 28.1326 31.5082C28.1326 31.5704 28.2846 31.5289 28.2856 31.4756C28.2782 31.3441 28.3139 31.2136 28.3873 31.1042C28.4607 30.9948 28.5679 30.9122 28.6924 30.8693C28.817 30.8262 28.9522 30.825 29.0775 30.8659C29.2028 30.9067 29.3114 30.9873 29.3867 31.0954C29.4678 31.2 29.5166 31.3261 29.5268 31.458C29.5372 31.59 29.5088 31.7221 29.445 31.838C29.3835 31.951 29.2866 32.0406 29.1691 32.0929C29.0516 32.1452 28.9202 32.1573 28.7952 32.1274C28.6505 32.0896 28.5222 32.0054 28.4302 31.8877C28.3381 31.7699 28.2873 31.6251 28.2856 31.4756C28.2846 31.4134 28.1316 31.4559 28.1326 31.5082Z" fill="#121212"/>
<path d="M28.9119 30.7162C29.0488 30.7162 29.1598 30.6052 29.1598 30.4683C29.1598 30.3315 29.0488 30.2205 28.9119 30.2205C28.7751 30.2205 28.6641 30.3315 28.6641 30.4683C28.6641 30.6052 28.7751 30.7162 28.9119 30.7162Z" fill="#121212"/>
<path d="M43.269 46.4955H52.2395V46.0501H43.269V46.4955Z" fill="#121212"/>
<path d="M52.24 46.4945C52.3628 46.4945 52.4622 46.3951 52.4622 46.2723C52.4622 46.1496 52.3628 46.0501 52.24 46.0501C52.1173 46.0501 52.0178 46.1496 52.0178 46.2723C52.0178 46.3951 52.1173 46.4945 52.24 46.4945Z" fill="#121212"/>
<path d="M56.4395 39.3815L56.1541 39.2334L52.4668 46.3898L52.8253 46.3957L56.4395 39.3815Z" fill="#121212"/>
<path d="M52.8252 46.5399L52.4668 46.533C52.4424 46.5324 52.4186 46.5257 52.3975 46.5134C52.3764 46.5012 52.3588 46.4838 52.3463 46.4629C52.3343 46.4416 52.3281 46.4176 52.3281 46.3932C52.3281 46.3688 52.3343 46.3449 52.3463 46.3236L56.0326 39.1682C56.0414 39.151 56.0535 39.1358 56.0682 39.1234C56.0829 39.1108 56.1 39.1014 56.1183 39.0957C56.1367 39.0899 56.1561 39.0878 56.1752 39.0896C56.1945 39.0914 56.2131 39.0969 56.2301 39.106L56.5165 39.2531C56.55 39.2708 56.5752 39.3009 56.5866 39.3371C56.5925 39.355 56.5948 39.3739 56.5932 39.3928C56.5918 39.4116 56.5864 39.4299 56.5777 39.4467L52.9635 46.4579C52.951 46.4837 52.9313 46.5052 52.9067 46.5197C52.8821 46.5344 52.8538 46.5414 52.8252 46.5399ZM52.6998 46.2505H52.7383L56.2459 39.4417L56.2153 39.4259L52.6998 46.2505Z" fill="#121212"/>
<path d="M48.6086 46.0501L51.2087 39.6234C51.2087 39.6234 54.9454 39.2472 56.1541 39.2334L52.8282 46.0471L48.6086 46.0501Z" fill="white"/>
<path d="M52.8311 46.1933H48.6086C48.5852 46.1933 48.5622 46.1874 48.5414 46.1764C48.5208 46.1654 48.5031 46.1495 48.4901 46.1301C48.4768 46.1106 48.4685 46.0881 48.4661 46.0647C48.4636 46.0412 48.4672 46.0175 48.4763 45.9958L51.0764 39.5691C51.0861 39.5449 51.1023 39.5238 51.1233 39.5082C51.1441 39.4925 51.1689 39.4828 51.1949 39.4802C51.3479 39.4654 54.9474 39.103 56.1521 39.0902C56.1763 39.0905 56.2001 39.0968 56.2212 39.1087C56.2423 39.1206 56.26 39.1376 56.2729 39.1582C56.2856 39.1788 56.293 39.2023 56.2944 39.2264C56.2957 39.2505 56.2909 39.2747 56.2805 39.2966L52.9556 46.1103C52.9444 46.1342 52.9269 46.1546 52.9049 46.1692C52.883 46.1838 52.8575 46.1922 52.8311 46.1933ZM48.8249 45.9069H52.7423L55.924 39.3835C54.6728 39.4279 51.8427 39.7044 51.3124 39.7567L48.8249 45.9069Z" fill="#121212"/>
<path d="M50.9453 42.1089H53.9789L54.5793 40.6553L51.4124 40.756L50.9453 42.1089Z" fill="#66A8F7"/>
<path d="M51.7786 43.9754H53.1788L53.7783 42.5218H52.3809L51.7786 43.9754Z" fill="#66A8F7"/>
<path d="M32.8075 26.542C32.3976 26.4502 32.7828 25.9495 32.1883 25.8429C31.6432 25.7491 31.892 25.1151 31.1396 25.1516C30.3871 25.1882 30.3841 24.6648 29.7215 24.9038C29.5954 24.9509 29.461 24.9717 29.3265 24.965C29.3917 24.9284 29.2574 24.3804 29.9477 24.4238C30.2439 24.4426 30.1452 23.9933 30.4177 23.7741C30.634 23.6032 31.0161 23.7533 31.2758 23.3198C31.4269 23.068 31.3262 22.8152 31.2758 22.5634C31.2255 22.3116 31.578 21.958 31.578 21.6549C31.578 21.3517 31.0734 21.2006 31.3805 20.7464C31.5869 20.4363 31.027 19.989 31.2818 19.6364C31.6175 19.1664 30.8364 18.9551 31.029 18.4248C31.2314 17.8698 30.8048 17.8589 30.3733 17.9202C30.0197 17.9705 30.4602 17.2348 29.6662 17.4155C28.5563 17.6683 29.212 17.0117 28.3045 17.218C27.6339 17.3662 27.3456 16.511 26.5882 17.066C26.2376 17.3227 25.4782 16.5614 25.024 17.066C24.5697 17.5706 24.1155 16.7638 23.3581 17.4699C22.6007 18.1759 21.9953 17.4699 21.4907 18.2776C20.9861 19.0854 21.5065 19.3333 21.148 19.752C20.597 20.3938 20.4864 21.1434 20.835 21.5581C21.3031 22.1151 21.1372 22.4162 21.3396 22.8191C21.6556 23.4511 22.097 22.9179 22.2985 23.3238C22.4792 23.6852 22.2442 24.2471 23.4588 24.1315C24.5194 24.0328 23.9634 25.595 25.1257 24.9679C25.888 24.5562 26.5467 25.7807 26.5981 25.7955C26.4144 25.8843 26.052 26.1016 26.1241 26.4087C26.2228 26.8165 25.4417 26.8323 25.7291 27.3616C26.0322 27.9166 25.3755 28.0173 25.8693 28.438C26.444 28.9318 25.6283 29.3801 26.3453 29.6398C26.9812 29.8689 26.1853 30.1869 26.9378 30.4397L27.5935 29.8847C27.5935 29.8847 27.8897 29.3801 27.8966 29.3297C27.5431 28.8755 28.2156 27.8613 28.9058 28.0677C29.4105 28.2198 29.6731 28.7017 29.4608 28.9762C29.2169 29.2932 29.5714 30.1306 29.5714 30.1306C29.5482 29.869 29.5723 29.6054 29.6425 29.3524C29.7186 29.1283 30.0928 29.0335 30.1363 28.8587C30.2439 28.4242 30.4118 28.1358 31.03 28.2464C31.7518 28.3738 31.8762 27.6036 32.1873 27.4268C32.451 27.2757 32.6416 27.3498 32.6949 27.5068C32.7482 27.6638 32.9753 27.5236 33.0109 27.7715L33.2933 27.7142C33.2933 27.7142 33.6379 26.7277 32.8075 26.542Z" fill="#121212"/>
<path d="M23.138 62.1217C21.6494 62.1174 20.1652 61.9596 18.709 61.6506C15.752 61.0301 12.9608 59.7876 10.5207 58.0058C10.4641 57.9592 10.4274 57.8926 10.4183 57.8198C10.4091 57.7471 10.4281 57.6735 10.4714 57.6143C10.5147 57.5551 10.579 57.5147 10.6511 57.5014C10.7233 57.488 10.7978 57.5028 10.8594 57.5426C13.234 59.2768 15.9506 60.4856 18.8285 61.0888C20.2456 61.3903 21.6901 61.5443 23.139 61.5479C23.2121 61.5523 23.2809 61.5844 23.3312 61.6377C23.3815 61.691 23.4094 61.7615 23.4094 61.8348C23.4094 61.9081 23.3815 61.9786 23.3312 62.032C23.2809 62.0853 23.2121 62.1174 23.139 62.1217H23.138Z" fill="#121212"/>
<path d="M17.6828 71.0298C17.5866 71.0301 17.4925 71.0014 17.4128 70.9473C17.3332 70.8932 17.2717 70.8163 17.2365 70.7267L17.2316 70.7129L15.2467 64.0304L9.0195 67.4028C8.90476 67.4638 8.77274 67.484 8.64497 67.4603C8.5172 67.4366 8.40124 67.3704 8.316 67.2723C8.23076 67.1743 8.18126 67.0501 8.1756 66.9203C8.16993 66.7905 8.20843 66.6626 8.2848 66.5575H8.29468L14.1782 59.4159L15.4254 63.6147L19.5976 61.3553L18.1697 70.6062C18.1577 70.7131 18.1102 70.8128 18.0349 70.8894C17.9595 70.9661 17.8606 71.0151 17.7539 71.0289C17.7302 71.0306 17.7065 71.031 17.6828 71.0298ZM17.5041 70.624C17.5204 70.666 17.5505 70.701 17.5895 70.7235C17.6285 70.7459 17.6741 70.7544 17.7185 70.7475C17.7629 70.7406 17.8037 70.7187 17.834 70.6855C17.8644 70.6522 17.8824 70.6097 17.8853 70.5647L19.2224 61.8747L15.5034 63.8912L17.5041 70.624ZM8.51785 66.7303C8.48057 66.783 8.46216 66.8469 8.4656 66.9114C8.46904 66.976 8.49413 67.0374 8.53682 67.086C8.57951 67.1345 8.63731 67.1671 8.70089 67.1788C8.76445 67.1904 8.83008 67.1803 8.88718 67.15L15.1647 63.75L14.0548 60.0103L8.51785 66.7303Z" fill="#121212"/>
<path d="M8.24729 65.6362C8.23552 65.6362 8.22396 65.6331 8.21372 65.6273C8.20513 65.6229 8.1975 65.6168 8.19128 65.6095C8.18507 65.6021 8.1804 65.5936 8.17755 65.5844C8.17469 65.5751 8.17371 65.5655 8.17467 65.5559C8.17562 65.5463 8.17849 65.537 8.18311 65.5285C8.32136 65.2649 8.46948 65.017 8.62649 64.7533C8.82399 64.4314 9.02149 64.0986 9.20122 63.7263C9.20484 63.717 9.21037 63.7085 9.21747 63.7014C9.22457 63.6942 9.23309 63.6887 9.24245 63.6851C9.25181 63.6815 9.26183 63.6798 9.27186 63.6803C9.2819 63.6808 9.29171 63.6834 9.3007 63.6878C9.30968 63.6924 9.31763 63.6987 9.32402 63.7064C9.33041 63.7142 9.33512 63.7232 9.33785 63.7328C9.34056 63.7424 9.34124 63.7526 9.33981 63.7626C9.33839 63.7725 9.33492 63.782 9.32959 63.7905C9.14394 64.1677 8.94348 64.5025 8.74993 64.8274C8.59391 65.0881 8.44578 65.335 8.31049 65.5957C8.30461 65.6075 8.29562 65.6175 8.28449 65.6246C8.27336 65.6318 8.26051 65.6358 8.24729 65.6362Z" fill="#121212"/>
<path d="M8.07076 64.6812C8.0584 64.6812 8.04626 64.6779 8.03554 64.6718C8.0248 64.6655 8.01584 64.6568 8.00949 64.6462C8.00314 64.6355 7.99963 64.6235 7.9993 64.6111C7.99895 64.5988 8.0018 64.5865 8.00756 64.5756C8.19519 64.226 8.2732 64.0631 8.34924 63.9061C8.42527 63.7491 8.50427 63.5822 8.69289 63.2306C8.6973 63.2223 8.70329 63.215 8.71054 63.209C8.71779 63.203 8.72615 63.1985 8.73514 63.1958C8.74413 63.193 8.75357 63.1921 8.76292 63.193C8.77227 63.1939 8.78137 63.1965 8.78966 63.201C8.79797 63.2054 8.80531 63.2114 8.81129 63.2187C8.81727 63.2259 8.82176 63.2343 8.82452 63.2433C8.82726 63.2522 8.82822 63.2616 8.82732 63.271C8.82643 63.2804 8.8237 63.2895 8.81929 63.2978C8.63265 63.6473 8.55464 63.8103 8.4786 63.9683C8.40256 64.1263 8.32257 64.2912 8.13396 64.6437C8.12776 64.6551 8.11862 64.6646 8.10751 64.6712C8.09639 64.6778 8.0837 64.6812 8.07076 64.6812Z" fill="#121212"/>
<path d="M20.003 66.4825C19.9838 66.4825 19.9656 66.4749 19.952 66.4613C19.9385 66.4478 19.9309 66.4295 19.9309 66.4104C19.9309 65.7724 19.9309 65.1128 20.081 64.5341C20.0834 64.525 20.0875 64.5165 20.0933 64.509C20.099 64.5016 20.1061 64.4953 20.1142 64.4906C20.1223 64.4858 20.1313 64.4828 20.1406 64.4815C20.1498 64.4803 20.1593 64.4809 20.1684 64.4833C20.1775 64.4856 20.186 64.4898 20.1935 64.4955C20.2009 64.5012 20.2072 64.5083 20.212 64.5164C20.2167 64.5245 20.2198 64.5335 20.221 64.5428C20.2222 64.5521 20.2216 64.5616 20.2193 64.5707C20.0741 65.1306 20.0741 65.7803 20.0741 66.4094C20.0744 66.4189 20.0727 66.4283 20.0693 66.4372C20.0658 66.446 20.0606 66.4541 20.054 66.4609C20.0473 66.4677 20.0394 66.4732 20.0306 66.4768C20.022 66.4806 20.0125 66.4825 20.003 66.4825Z" fill="#121212"/>
<path d="M16.5366 71.3992C17.5466 71.3992 18.3655 71.2595 18.3655 71.0872C18.3655 70.9148 17.5466 70.7751 16.5366 70.7751C15.5266 70.7751 14.7078 70.9148 14.7078 71.0872C14.7078 71.2595 15.5266 71.3992 16.5366 71.3992Z" fill="#121212"/>
<path d="M23.2111 61.7533C21.7226 61.7491 20.2383 61.5913 18.7822 61.2823C15.8251 60.6622 13.0338 59.4201 10.5938 57.6384C10.5365 57.5921 10.4991 57.5255 10.4895 57.4524C10.4799 57.3794 10.4986 57.3054 10.5421 57.2458C10.5854 57.1862 10.65 57.1455 10.7225 57.1322C10.795 57.1189 10.8698 57.134 10.9316 57.1743C13.3061 58.9087 16.0227 60.1179 18.9007 60.7214C20.3182 61.0222 21.763 61.1757 23.2121 61.1796C23.2512 61.1773 23.2903 61.183 23.3272 61.1964C23.364 61.2098 23.3977 61.2305 23.4261 61.2574C23.4545 61.2842 23.4772 61.3166 23.4928 61.3526C23.5083 61.3885 23.5164 61.4272 23.5164 61.4664C23.5164 61.5055 23.5083 61.5444 23.4928 61.5803C23.4772 61.6162 23.4545 61.6486 23.4261 61.6755C23.3977 61.7024 23.364 61.7231 23.3272 61.7365C23.2903 61.7498 23.2512 61.7556 23.2121 61.7533H23.2111Z" fill="#66A8F7"/>
</svg>
