<?xml version="1.0" encoding="UTF-8" standalone="no"?>
<!DOCTYPE svg PUBLIC "-//W3C//DTD SVG 1.1//EN" "http://www.w3.org/Graphics/SVG/1.1/DTD/svg11.dtd">
<svg width="100%" height="100%" viewBox="0 0 1269 804" version="1.1" xmlns="http://www.w3.org/2000/svg" xmlns:xlink="http://www.w3.org/1999/xlink" xml:space="preserve" xmlns:serif="http://www.serif.com/" style="fill-rule:evenodd;clip-rule:evenodd;stroke-linejoin:round;stroke-miterlimit:2;">
    <g transform="matrix(4.16667,0,0,4.16667,0,0)">
        <g transform="matrix(1.00453,0,0,1.00453,-0.0231605,0)">
            <g transform="matrix(1,0,0,1,0.0230561,8.95118)">
                <rect x="0" y="0" width="303" height="183" style="fill:rgb(172,208,255);"/>
            </g>
            <g transform="matrix(4.16667,0,0,4.16667,80.6897,0)">
                <g>
                    <g>
                        <path d="M17,0L33.455,14.25L0.546,14.25L17,0Z" style="fill:rgb(172,208,255);fill-rule:nonzero;"/>
                    </g>
                </g>
            </g>
            <g transform="matrix(1,0,0,1,43.0331,19.9638)">
                <g>
                    <g>
                        <ellipse cx="84.5" cy="79.5" rx="84.5" ry="79.5" style="fill:rgb(214,232,255);fill-opacity:0.28;"/>
                    </g>
                </g>
            </g>
            <g transform="matrix(0.246234,0,0,0.246234,227.987,110.999)">
                <g>
                    <g transform="matrix(4.16667,0,0,4.16667,0,0)">
                        <path d="M58.869,70.611C58.869,71.61 44.846,75.766 35.338,71.481C33.147,70.494 33.453,71.423 30.967,71.6C26.665,71.906 21.799,71.501 21.799,70.66C21.799,69.818 27.017,69.172 30.423,69.205C34.799,69.247 40.08,68.128 45.986,68.128C56.929,68.128 58.869,69.613 58.869,70.611Z" style="fill:rgb(18,18,18);fill-rule:nonzero;"/>
                    </g>
                    <g transform="matrix(4.16667,0,0,4.16667,0,0)">
                        <rect x="47.661" y="48.239" width="1.022" height="22.144" style="fill:white;"/>
                    </g>
                    <g transform="matrix(4.16667,0,0,4.16667,0,0)">
                        <path d="M48.827,70.526L47.518,70.526L47.518,48.096L48.827,48.096L48.827,70.526ZM47.805,70.24L48.54,70.24L48.54,48.388L47.805,48.388L47.805,70.24Z" style="fill:rgb(18,18,18);fill-rule:nonzero;"/>
                    </g>
                    <g transform="matrix(4.16667,0,0,4.16667,0,0)">
                        <path d="M45.219,70.315C46.028,69.583 47.081,69.178 48.172,69.178C49.263,69.178 50.316,69.583 51.125,70.315C51.611,70.924 45.055,71.239 45.219,70.315Z" style="fill:white;fill-rule:nonzero;"/>
                    </g>
                    <g transform="matrix(4.16667,0,0,4.16667,0,0)">
                        <path d="M47.88,71.04C46.848,71.04 45.869,70.95 45.42,70.751C45.095,70.607 45.054,70.421 45.077,70.289L45.086,70.241L45.122,70.208C45.958,69.452 47.045,69.033 48.172,69.033C49.299,69.033 50.386,69.452 51.221,70.208L51.237,70.225C51.271,70.267 51.29,70.319 51.29,70.373C51.29,70.427 51.271,70.48 51.237,70.521C50.991,70.849 49.38,71.04 47.88,71.04ZM45.368,70.373C45.417,70.429 45.479,70.471 45.548,70.495C46.655,70.968 50.528,70.712 50.979,70.38C50.203,69.698 49.206,69.322 48.173,69.321C47.14,69.319 46.142,69.693 45.364,70.373L45.368,70.373Z" style="fill:rgb(18,18,18);fill-rule:nonzero;"/>
                    </g>
                    <g transform="matrix(4.16667,0,0,4.16667,0,0)">
                        <path d="M51.483,48.085C51.07,48.557 50.561,48.935 49.99,49.194C49.419,49.453 48.799,49.586 48.172,49.586C47.545,49.586 46.925,49.453 46.354,49.194C45.783,48.935 45.274,48.557 44.861,48.085L51.483,48.085Z" style="fill:white;fill-rule:nonzero;"/>
                    </g>
                    <g transform="matrix(4.16667,0,0,4.16667,0,0)">
                        <path d="M51.335,48.037C50.717,48.74 49.889,49.224 48.974,49.42C48.035,49.614 47.058,49.476 46.209,49.029C45.752,48.786 45.343,48.462 45,48.074L44.885,48.172L51.507,48.172C51.553,48.172 51.65,48.164 51.635,48.095C51.621,48.026 51.501,48.004 51.451,48.004L44.832,48.004C44.79,48.004 44.65,48.028 44.717,48.103C46.099,49.666 48.455,50.129 50.318,49.165C50.815,48.906 51.26,48.558 51.63,48.138C51.707,48.05 51.407,47.955 51.335,48.037Z" style="fill:rgb(18,18,18);fill-rule:nonzero;"/>
                    </g>
                    <g transform="matrix(4.16667,0,0,4.16667,0,0)">
                        <rect x="38.433" y="46.575" width="20.116" height="1.429" style="fill:white;"/>
                    </g>
                    <g transform="matrix(4.16667,0,0,4.16667,0,0)">
                        <path d="M58.692,48.149L38.288,48.149L38.288,46.433L58.692,46.433L58.692,48.149ZM38.575,47.861L58.405,47.861L58.405,46.72L38.575,46.72L38.575,47.861Z" style="fill:rgb(18,18,18);fill-rule:nonzero;"/>
                    </g>
                    <g transform="matrix(4.16667,0,0,4.16667,0,0)">
                        <path d="M21.484,50.597L21.464,50.565C21.573,50.49 21.68,50.421 21.79,50.354L21.809,50.386C21.7,50.452 21.594,50.522 21.484,50.597Z" style="fill:rgb(231,0,112);fill-rule:nonzero;"/>
                    </g>
                    <g transform="matrix(4.16667,0,0,4.16667,0,0)">
                        <path d="M18.105,52.892L18.09,52.858L18.101,52.858L18.112,52.853C19.272,52.316 19.919,51.785 20.548,51.273C20.775,51.087 20.989,50.911 21.226,50.737L21.249,50.767C21.014,50.941 20.799,51.116 20.573,51.301C19.941,51.813 19.286,52.349 18.105,52.892Z" style="fill:rgb(231,0,112);fill-rule:nonzero;"/>
                    </g>
                    <g transform="matrix(4.16667,0,0,4.16667,0,0)">
                        <path d="M16.821,53.386C20.505,52.102 20.4,50.793 23.042,49.76C25.328,48.864 27.004,48.978 28.334,49.231C34.738,50.581 37.482,51.689 39.844,53.716C45.205,58.32 36.888,66.977 37.401,67.684C37.915,68.391 38.487,69.363 39.214,69.73C39.511,69.88 39.792,70.014 40.035,70.125C40.222,70.211 40.161,70.709 39.957,70.71L38.352,70.71C37.435,70.71 36.592,69.603 35.852,69.291C35.111,68.979 36.135,67.941 36.135,67.491C36.135,64.731 36.505,59.48 34.422,59.032C30.643,58.219 27.064,59.671 23.066,59.588C19.214,59.509 15.348,57.675 13.457,53.948C13.456,53.947 14.369,54.244 16.821,53.386Z" style="fill:white;fill-rule:nonzero;"/>
                    </g>
                    <g transform="matrix(4.16667,0,0,4.16667,0,0)">
                        <path d="M39.354,70.854L38.349,70.854C37.731,70.854 37.156,70.4 36.647,70C36.344,69.76 36.055,69.534 35.793,69.423C35.719,69.396 35.651,69.354 35.595,69.298C35.539,69.243 35.495,69.176 35.467,69.102C35.356,68.788 35.566,68.405 35.763,68.035C35.876,67.825 35.993,67.607 35.993,67.491C35.993,67.151 35.997,66.774 36.003,66.375C36.044,63.653 36.102,59.54 34.392,59.172C32.188,58.698 30.074,59 27.837,59.32C26.302,59.539 24.716,59.766 23.065,59.732C21.105,59.704 19.18,59.199 17.458,58.263C15.688,57.292 14.25,55.813 13.331,54.016L13.175,53.708L13.503,53.815C13.511,53.815 14.422,54.078 16.776,53.255C18.79,52.551 19.646,51.852 20.474,51.175C21.15,50.622 21.789,50.101 22.989,49.631C25.359,48.702 27.106,48.856 28.36,49.094C34.698,50.43 37.51,51.528 39.938,53.611C41.71,55.134 42.216,57.276 41.44,59.979C40.797,62.219 39.398,64.423 38.477,65.882C37.992,66.645 37.49,67.434 37.525,67.61C37.617,67.736 37.71,67.87 37.806,68.005C38.234,68.621 38.719,69.32 39.287,69.603C39.548,69.735 39.823,69.867 40.103,69.998C40.287,70.082 40.326,70.331 40.283,70.526C40.241,70.722 40.118,70.854 39.966,70.856L39.354,70.854ZM31.948,58.638C32.789,58.633 33.629,58.718 34.452,58.891C36.395,59.308 36.334,63.395 36.291,66.378C36.285,66.773 36.279,67.152 36.279,67.49C36.279,67.678 36.157,67.905 36.016,68.169C35.863,68.456 35.672,68.811 35.741,69.006C35.756,69.041 35.779,69.074 35.807,69.1C35.836,69.126 35.87,69.146 35.908,69.158C36.204,69.284 36.509,69.522 36.828,69.773C37.322,70.168 37.833,70.563 38.353,70.563L39.955,70.563C39.985,70.513 40.002,70.456 40.004,70.398C40.012,70.347 40.001,70.295 39.974,70.252C39.693,70.122 39.414,69.989 39.15,69.857C38.522,69.541 38.015,68.811 37.57,68.166C37.471,68.028 37.38,67.894 37.288,67.771C37.109,67.525 37.392,67.054 38.233,65.727C40.129,62.74 43.657,57.18 39.753,53.829C37.363,51.778 34.582,50.695 28.302,49.375C27.013,49.13 25.383,49.001 23.092,49.897C21.934,50.351 21.314,50.859 20.654,51.396C19.806,52.088 18.93,52.805 16.869,53.526C15.148,54.128 14.167,54.169 13.716,54.136C14.614,55.771 15.96,57.117 17.596,58.014C19.277,58.928 21.155,59.42 23.068,59.448C24.696,59.481 26.27,59.256 27.793,59.039C29.206,58.833 30.571,58.638 31.945,58.638L31.948,58.638Z" style="fill:rgb(18,18,18);fill-rule:nonzero;"/>
                    </g>
                    <g transform="matrix(4.16667,0,0,4.16667,0,0)">
                        <path d="M26.599,49.05C26.599,49.05 22.669,46.018 22.903,44.489C22.903,44.489 27.04,48.568 30.775,48.834C33.02,48.995 34.081,48.891 37.095,48.031C38.659,48.885 39.828,50.302 39.828,51.494C39.828,51.926 39.636,52.558 39.334,53.296C36.933,51.556 32.549,49.755 26.599,49.05Z" style="fill:rgb(18,18,18);fill-rule:nonzero;"/>
                    </g>
                    <g transform="matrix(4.16667,0,0,4.16667,0,0)">
                        <path d="M29.456,67.15C28.723,68.015 28.287,68.639 28.438,68.779C29.063,69.359 31.472,70.373 31.472,70.373C31.508,70.396 31.535,70.43 31.55,70.47C31.565,70.51 31.567,70.553 31.555,70.594C31.543,70.635 31.519,70.67 31.485,70.696C31.451,70.722 31.41,70.736 31.368,70.737C31.368,70.737 30.54,70.78 29.804,70.737C29.372,70.712 29.086,70.592 28.711,70.592C28.051,70.597 27.391,70.644 26.736,70.735C26.653,70.735 26.571,70.715 26.497,70.677C26.423,70.639 26.36,70.584 26.311,70.516C26.263,70.449 26.232,70.37 26.22,70.288C26.208,70.206 26.215,70.122 26.243,70.043C26.393,69.604 26.76,69.083 27.01,68.345C27.191,67.816 27.385,67.224 27.587,66.6L29.456,67.15Z" style="fill:white;fill-rule:nonzero;"/>
                    </g>
                    <g transform="matrix(4.16667,0,0,4.16667,0,0)">
                        <path d="M30.514,70.903C30.287,70.903 30.038,70.898 29.8,70.884C29.612,70.871 29.424,70.845 29.24,70.806C29.068,70.767 28.892,70.745 28.715,70.74C28.062,70.743 27.409,70.789 26.761,70.877L26.74,70.877C26.635,70.877 26.531,70.852 26.437,70.804C26.343,70.756 26.262,70.686 26.201,70.6C26.139,70.514 26.099,70.415 26.083,70.311C26.068,70.206 26.078,70.1 26.111,70C26.194,69.775 26.293,69.557 26.408,69.347C26.59,69.011 26.746,68.661 26.875,68.301C27.043,67.808 27.236,67.221 27.45,66.559L27.493,66.425L29.705,67.071L29.562,67.24C28.654,68.312 28.552,68.61 28.549,68.686C29.172,69.244 31.502,70.228 31.526,70.238L31.547,70.249C31.609,70.288 31.656,70.347 31.682,70.416C31.708,70.485 31.711,70.56 31.691,70.631C31.67,70.702 31.628,70.764 31.569,70.808C31.51,70.852 31.439,70.876 31.365,70.877C31.365,70.877 30.985,70.903 30.514,70.903ZM28.715,70.453C28.91,70.458 29.104,70.481 29.294,70.523C29.466,70.561 29.641,70.585 29.817,70.597C30.536,70.638 31.356,70.597 31.364,70.597C31.377,70.599 31.39,70.597 31.401,70.589C31.412,70.582 31.42,70.571 31.423,70.559C31.427,70.549 31.427,70.539 31.424,70.529C31.421,70.519 31.416,70.51 31.407,70.504C31.19,70.412 28.962,69.462 28.346,68.889C28.163,68.719 28.247,68.386 29.21,67.23L27.688,66.786C27.491,67.402 27.314,67.931 27.155,68.4C27.022,68.774 26.86,69.137 26.671,69.486C26.563,69.684 26.468,69.889 26.388,70.1C26.369,70.156 26.363,70.215 26.372,70.274C26.38,70.333 26.402,70.388 26.436,70.437C26.469,70.486 26.514,70.525 26.566,70.553C26.618,70.582 26.676,70.597 26.735,70.598C27.39,70.506 28.05,70.457 28.712,70.449L28.715,70.453Z" style="fill:rgb(18,18,18);fill-rule:nonzero;"/>
                    </g>
                    <g transform="matrix(4.16667,0,0,4.16667,0,0)">
                        <path d="M27.815,29.465C27.155,28.607 26.98,26.508 28.694,25.661C31.301,24.377 34.497,27.745 32.779,29.637C32.025,30.468 32.801,31.396 32.587,31.77C32.374,32.144 32.05,31.978 31.812,32.115C31.384,32.36 31.128,32.968 30.424,33.126C29.652,33.3 29.192,32.487 28.943,32.411C28.197,32.186 26.071,32.848 27.281,35.867C21.799,36.439 19.99,33.18 19.99,33.18C21.746,32.202 23.885,33.291 27.815,29.465Z" style="fill:white;fill-rule:nonzero;"/>
                    </g>
                    <g transform="matrix(4.16667,0,0,4.16667,0,0)">
                        <path d="M26.028,36.074C23.862,36.074 22.394,35.442 21.501,34.86C20.348,34.107 19.884,33.289 19.865,33.254L19.795,33.129L19.92,33.059C20.498,32.736 21.099,32.631 21.796,32.511C23.235,32.261 25.023,31.951 27.623,29.449C27.241,28.875 27.097,27.986 27.272,27.234C27.353,26.866 27.517,26.522 27.752,26.227C27.987,25.932 28.286,25.695 28.627,25.534C28.988,25.358 29.38,25.257 29.781,25.236C30.182,25.215 30.583,25.275 30.96,25.412C31.688,25.669 32.325,26.132 32.792,26.746C33.577,27.786 33.612,28.932 32.882,29.735C32.452,30.21 32.576,30.707 32.685,31.146C32.754,31.421 32.813,31.658 32.707,31.843C32.534,32.147 32.286,32.173 32.104,32.191C32.026,32.192 31.95,32.209 31.88,32.241C31.728,32.341 31.591,32.461 31.473,32.598C31.22,32.861 30.935,33.158 30.451,33.268C29.834,33.406 29.403,33.002 29.119,32.734C29.052,32.663 28.977,32.602 28.895,32.55C28.583,32.451 27.917,32.542 27.476,33.025C27.099,33.436 26.784,34.253 27.408,35.811L27.478,35.988L27.29,36.007C26.871,36.051 26.449,36.073 26.028,36.074ZM20.196,33.238C20.591,33.81 22.51,36.152 27.078,35.738C26.492,34.158 26.852,33.284 27.268,32.83C27.799,32.249 28.59,32.155 28.983,32.274C29.112,32.332 29.227,32.417 29.321,32.523C29.575,32.763 29.924,33.092 30.392,32.986C30.793,32.896 31.035,32.643 31.27,32.398C31.407,32.24 31.566,32.103 31.741,31.99C31.847,31.937 31.962,31.908 32.08,31.903C32.244,31.887 32.364,31.875 32.463,31.7C32.512,31.614 32.463,31.419 32.411,31.214C32.296,30.756 32.139,30.128 32.674,29.54C33.428,28.71 33.113,27.64 32.567,26.915C31.481,25.478 29.83,25.26 28.758,25.79C28.455,25.932 28.189,26.142 27.98,26.403C27.77,26.665 27.624,26.971 27.552,27.298C27.354,28.139 27.608,28.965 27.925,29.377L28.003,29.476L27.911,29.566C25.195,32.209 23.335,32.528 21.841,32.791C21.232,32.9 20.693,32.993 20.196,33.238Z" style="fill:rgb(18,18,18);fill-rule:nonzero;"/>
                    </g>
                    <g transform="matrix(4.16667,0,0,4.16667,0,0)">
                        <path d="M19.99,33.18C19.99,33.18 21.799,36.439 27.279,35.858C28.258,38.538 29.265,40.516 31.794,42.664C32.383,43.158 33.038,43.569 33.74,43.885C37.175,45.434 37.274,43.605 41.755,44.148C44.608,44.494 45.371,45.669 45.299,46.123L43.297,46.123C42.914,45.791 42.427,45.605 41.92,45.595C40.939,45.595 39.457,46.569 38.119,47.38C34.498,49.579 30.282,48.919 28.744,48.289C25.954,47.146 22.903,44.481 22.903,44.481C22.903,46.569 26.598,49.042 26.598,49.042C24.996,49.074 24.183,49.301 23.043,49.752C20.407,50.792 20.509,52.091 16.822,53.378C14.37,54.237 13.457,53.939 13.457,53.939C12.553,52.082 11.71,49.522 11.71,46.601C11.709,41.08 16.269,35.734 19.99,33.18Z" style="fill:white;fill-rule:nonzero;"/>
                    </g>
                    <g transform="matrix(4.16667,0,0,4.16667,0,0)">
                        <path d="M13.957,54.141C13.774,54.148 13.59,54.129 13.412,54.083L13.355,54.065L13.328,54.01C12.524,52.36 11.565,49.736 11.565,46.604C11.565,41.227 15.891,35.815 19.909,33.061L20.133,32.908L20.133,33.14C20.331,33.461 22.23,36.244 27.265,35.715L27.376,35.703L27.415,35.809C28.426,38.579 29.438,40.474 31.887,42.553C32.466,43.04 33.109,43.443 33.799,43.752C35.66,44.593 36.501,44.422 37.662,44.185C38.593,43.996 39.751,43.76 41.772,44.005C44.01,44.276 44.881,45.026 45.201,45.45C45.384,45.694 45.472,45.948 45.442,46.149L45.422,46.269L43.243,46.269L43.203,46.235C42.846,45.926 42.392,45.751 41.919,45.741C41.075,45.741 39.813,46.513 38.593,47.261L38.193,47.505C34.745,49.597 30.533,49.179 28.689,48.423C26.388,47.482 23.889,45.493 23.078,44.82C23.436,46.733 26.643,48.902 26.677,48.925L27.055,49.179L26.6,49.187C25.037,49.219 24.254,49.428 23.091,49.888C21.927,50.347 21.313,50.849 20.657,51.387C19.81,52.078 18.933,52.794 16.867,53.517C15.405,54.033 14.48,54.141 13.957,54.141ZM13.556,53.819C13.783,53.86 14.741,53.959 16.773,53.247C18.791,52.542 19.648,51.842 20.478,51.166C21.153,50.615 21.791,50.095 22.987,49.623C24.049,49.203 24.838,48.979 26.167,48.917C25.228,48.226 22.76,46.251 22.76,44.485L22.76,44.17L22.998,44.377C23.028,44.404 26.059,47.044 28.798,48.159C30.001,48.653 34.283,49.542 38.045,47.262L38.44,47.018C39.694,46.25 40.991,45.456 41.916,45.456C42.442,45.463 42.948,45.651 43.351,45.988L45.153,45.988C45.12,45.856 45.059,45.733 44.974,45.627C44.739,45.316 43.952,44.562 41.74,44.294C39.765,44.055 38.678,44.277 37.721,44.471C36.552,44.709 35.629,44.897 33.684,44.019C32.967,43.699 32.3,43.281 31.699,42.778C29.23,40.683 28.197,38.776 27.181,36.016C23.82,36.34 21.824,35.254 20.737,34.274C20.439,34.011 20.174,33.712 19.947,33.385C16.024,36.123 11.85,41.389 11.85,46.608C11.85,49.644 12.771,52.197 13.556,53.819Z" style="fill:rgb(18,18,18);fill-rule:nonzero;"/>
                    </g>
                    <g transform="matrix(4.16667,0,0,4.16667,0,0)">
                        <path d="M38.457,65.578L36.463,65.076L36.183,65.005C36.062,64.976 36.011,65.161 36.131,65.191L38.126,65.693L38.406,65.763C38.429,65.763 38.451,65.757 38.469,65.744C38.487,65.73 38.499,65.711 38.505,65.69C38.511,65.668 38.51,65.646 38.501,65.625C38.492,65.605 38.476,65.588 38.457,65.577L38.457,65.578Z" style="fill:rgb(18,18,18);fill-rule:nonzero;"/>
                    </g>
                    <g transform="matrix(4.16667,0,0,4.16667,0,0)">
                        <path d="M31.096,42.107C30.662,42.335 30.258,42.619 29.896,42.95C29.061,43.671 28.414,44.584 28.009,45.611C27.719,46.375 27.572,47.187 27.574,48.004C27.574,48.031 27.584,48.056 27.603,48.074C27.621,48.093 27.646,48.103 27.673,48.103C27.699,48.103 27.724,48.093 27.742,48.074C27.761,48.056 27.771,48.031 27.771,48.004C27.766,46.677 28.172,45.381 28.933,44.294C29.432,43.595 30.055,42.994 30.773,42.522C30.908,42.431 31.048,42.347 31.193,42.273C31.305,42.218 31.207,42.052 31.094,42.107L31.096,42.107Z" style="fill:rgb(18,18,18);fill-rule:nonzero;"/>
                    </g>
                    <g transform="matrix(4.16667,0,0,4.16667,0,0)">
                        <path d="M30.845,41.843C30.283,41.976 29.782,42.304 29.35,42.686C28.924,43.081 28.558,43.536 28.264,44.038C27.971,44.539 27.732,45.071 27.551,45.623C27.507,45.762 27.46,45.899 27.418,46.038L27.308,46.461C27.29,46.532 27.27,46.601 27.255,46.672L27.212,46.887L27.127,47.315L26.845,47.264L26.944,46.827L26.993,46.61C27.01,46.537 27.033,46.466 27.052,46.395L27.176,45.964C27.223,45.823 27.275,45.683 27.323,45.543C27.525,44.98 27.785,44.441 28.1,43.933C28.416,43.424 28.805,42.965 29.255,42.569C29.711,42.186 30.234,41.86 30.83,41.736L30.845,41.843Z" style="fill:rgb(18,18,18);fill-rule:nonzero;"/>
                    </g>
                    <g transform="matrix(4.16667,0,0,4.16667,0,0)">
                        <path d="M22.301,35.798C21.735,35.562 21.197,35.264 20.697,34.909C20.192,34.551 19.742,34.122 19.362,33.633L19.498,33.535C19.849,34.029 20.271,34.469 20.75,34.84C21.231,35.215 21.752,35.535 22.304,35.794L22.301,35.798Z" style="fill:rgb(18,18,18);fill-rule:nonzero;"/>
                    </g>
                    <g transform="matrix(4.16667,0,0,4.16667,0,0)">
                        <path d="M27.47,36.376C26.868,36.56 26.24,36.645 25.61,36.626L25.61,36.589C26.228,36.568 26.838,36.446 27.417,36.227L27.47,36.376Z" style="fill:rgb(18,18,18);fill-rule:nonzero;"/>
                    </g>
                    <g transform="matrix(4.16667,0,0,4.16667,0,0)">
                        <path d="M23.786,42.722C24.659,42.722 25.366,42.015 25.366,41.142C25.366,40.27 24.659,39.562 23.786,39.562C22.913,39.562 22.206,40.27 22.206,41.142C22.206,42.015 22.913,42.722 23.786,42.722Z" style="fill:rgb(102,168,247);fill-rule:nonzero;"/>
                    </g>
                    <g transform="matrix(4.16667,0,0,4.16667,0,0)">
                        <path d="M19.929,38.264C20.672,38.264 21.274,37.661 21.274,36.918C21.274,36.174 20.672,35.572 19.929,35.572C19.185,35.572 18.583,36.174 18.583,36.918C18.583,37.661 19.185,38.264 19.929,38.264Z" style="fill:rgb(102,168,247);fill-rule:nonzero;"/>
                    </g>
                    <g transform="matrix(4.16667,0,0,4.16667,0,0)">
                        <path d="M18.098,47.417C18.808,47.417 19.384,46.841 19.384,46.131C19.384,45.421 18.808,44.845 18.098,44.845C17.388,44.845 16.812,45.421 16.812,46.131C16.812,46.841 17.388,47.417 18.098,47.417Z" style="fill:rgb(102,168,247);fill-rule:nonzero;"/>
                    </g>
                    <g transform="matrix(4.16667,0,0,4.16667,0,0)">
                        <path d="M14.801,43.861C15.429,43.861 15.938,43.352 15.938,42.723C15.938,42.095 15.429,41.586 14.801,41.586C14.172,41.586 13.663,42.095 13.663,42.723C13.663,43.352 14.172,43.861 14.801,43.861Z" style="fill:rgb(102,168,247);fill-rule:nonzero;"/>
                    </g>
                    <g transform="matrix(4.16667,0,0,4.16667,0,0)">
                        <path d="M22.681,47.502C23.053,47.502 23.354,47.201 23.354,46.829C23.354,46.458 23.053,46.157 22.681,46.157C22.31,46.157 22.009,46.458 22.009,46.829C22.009,47.201 22.31,47.502 22.681,47.502Z" style="fill:rgb(102,168,247);fill-rule:nonzero;"/>
                    </g>
                    <g transform="matrix(4.16667,0,0,4.16667,0,0)">
                        <path d="M18.469,42.602C18.84,42.602 19.141,42.301 19.141,41.929C19.141,41.558 18.84,41.257 18.469,41.257C18.098,41.257 17.796,41.558 17.796,41.929C17.796,42.301 18.098,42.602 18.469,42.602Z" style="fill:rgb(102,168,247);fill-rule:nonzero;"/>
                    </g>
                    <g transform="matrix(4.16667,0,0,4.16667,0,0)">
                        <path d="M25.843,44.883C26.311,44.883 26.69,44.504 26.69,44.037C26.69,43.569 26.311,43.19 25.843,43.19C25.376,43.19 24.997,43.569 24.997,44.037C24.997,44.504 25.376,44.883 25.843,44.883Z" style="fill:rgb(102,168,247);fill-rule:nonzero;"/>
                    </g>
                    <g transform="matrix(4.16667,0,0,4.16667,0,0)">
                        <path d="M14.801,50.817C15.517,50.817 16.098,50.236 16.098,49.52C16.098,48.804 15.517,48.224 14.801,48.224C14.085,48.224 13.504,48.804 13.504,49.52C13.504,50.236 14.085,50.817 14.801,50.817Z" style="fill:rgb(102,168,247);fill-rule:nonzero;"/>
                    </g>
                    <g transform="matrix(4.16667,0,0,4.16667,0,0)">
                        <path d="M26.982,39.595C27.387,39.595 27.716,39.266 27.716,38.86C27.716,38.454 27.387,38.125 26.982,38.125C26.576,38.125 26.247,38.454 26.247,38.86C26.247,39.266 26.576,39.595 26.982,39.595Z" style="fill:rgb(102,168,247);fill-rule:nonzero;"/>
                    </g>
                    <g transform="matrix(4.16667,0,0,4.16667,0,0)">
                        <path d="M28.019,48.865C27.385,48.651 26.725,48.527 26.057,48.498C25.391,48.465 24.723,48.521 24.071,48.666C23.911,48.706 23.747,48.737 23.59,48.793L23.352,48.868L23.233,48.907L23.118,48.953C22.964,49.019 22.806,49.074 22.657,49.151L22.435,49.261L22.219,49.375C21.64,49.707 21.089,50.091 20.54,50.472C19.991,50.853 19.44,51.243 18.879,51.616C18.319,52 17.73,52.34 17.118,52.634C16.495,52.906 15.846,53.111 15.18,53.247C14.512,53.386 13.828,53.429 13.148,53.374L13.166,53.223C13.496,53.244 13.826,53.238 14.154,53.204C14.486,53.173 14.815,53.124 15.142,53.056C15.792,52.92 16.427,52.717 17.038,52.452C17.641,52.167 18.222,51.837 18.776,51.465C19.336,51.099 19.888,50.717 20.443,50.339C20.998,49.961 21.556,49.582 22.147,49.253L22.37,49.131L22.599,49.02C22.753,48.946 22.913,48.891 23.07,48.827L23.189,48.781L23.31,48.742L23.553,48.667C23.713,48.612 23.881,48.582 24.047,48.542C24.71,48.4 25.389,48.352 26.065,48.398C26.741,48.44 27.408,48.577 28.045,48.806L28.019,48.865Z" style="fill:rgb(18,18,18);fill-rule:nonzero;"/>
                    </g>
                    <g transform="matrix(4.16667,0,0,4.16667,0,0)">
                        <path d="M34.42,59.031C34.995,59.154 35.383,59.646 35.644,60.349C34.141,62.114 30.985,65.342 29.456,67.15L27.59,66.605C28.422,64.03 29.269,60.596 29.776,58.919C31.319,58.746 32.852,58.694 34.42,59.031Z" style="fill:rgb(18,18,18);fill-rule:nonzero;"/>
                    </g>
                    <g transform="matrix(4.16667,0,0,4.16667,0,0)">
                        <path d="M29.506,67.312L27.408,66.7L27.453,66.558C27.963,64.978 28.472,63.101 28.921,61.446C29.202,60.413 29.443,59.522 29.639,58.879L29.667,58.788L29.76,58.778C31.035,58.637 32.723,58.522 34.449,58.894C35.031,59.019 35.478,59.493 35.778,60.303L35.807,60.382L35.753,60.445C35.02,61.304 33.923,62.481 32.761,63.728C31.576,65.001 30.349,66.318 29.565,67.244L29.506,67.312ZM27.772,66.507L29.407,66.984C30.197,66.058 31.393,64.773 32.551,63.528C33.632,62.368 34.749,61.169 35.479,60.318C35.214,59.646 34.857,59.27 34.393,59.169C32.747,58.816 31.134,58.913 29.891,59.048C29.7,59.682 29.468,60.539 29.2,61.516C28.761,63.133 28.268,64.95 27.772,66.507Z" style="fill:rgb(18,18,18);fill-rule:nonzero;"/>
                    </g>
                    <g transform="matrix(4.16667,0,0,4.16667,0,0)">
                        <path d="M19.684,52.364C19.973,52.871 20.33,53.336 20.744,53.747C21.157,54.155 21.629,54.5 22.144,54.77C22.662,55.032 23.21,55.229 23.776,55.356C24.344,55.48 24.921,55.552 25.501,55.572C26.664,55.615 27.825,55.485 28.978,55.324C29.557,55.243 30.137,55.165 30.717,55.099C31.008,55.064 31.299,55.039 31.59,55.01C31.882,54.98 32.174,54.961 32.467,54.95C33.054,54.914 33.643,54.923 34.228,54.977C34.822,55.022 35.403,55.171 35.945,55.416C36.487,55.681 36.943,56.094 37.259,56.608C37.57,57.115 37.794,57.67 37.92,58.251C38.051,58.825 38.121,59.412 38.131,60.001C38.144,60.589 38.116,61.176 38.048,61.759C37.918,62.923 37.672,64.071 37.313,65.186L37.282,65.176C37.596,64.054 37.81,62.906 37.92,61.746C37.976,61.168 37.994,60.587 37.974,60.006C37.961,59.427 37.888,58.851 37.757,58.287C37.632,57.725 37.413,57.189 37.108,56.7L36.992,56.521L36.859,56.355C36.771,56.243 36.673,56.139 36.567,56.045C36.542,56.021 36.518,55.994 36.49,55.972L36.235,55.78C36.177,55.739 36.113,55.708 36.053,55.671C35.993,55.635 35.931,55.596 35.866,55.567C35.343,55.329 34.782,55.183 34.209,55.136C33.631,55.082 33.05,55.072 32.471,55.106C31.309,55.158 30.152,55.316 28.995,55.467C27.838,55.618 26.667,55.74 25.493,55.688C24.906,55.664 24.323,55.586 23.75,55.456C23.176,55.322 22.623,55.114 22.102,54.839C21.585,54.559 21.113,54.203 20.7,53.784C20.289,53.365 19.936,52.893 19.651,52.38L19.684,52.364Z" style="fill:rgb(18,18,18);fill-rule:nonzero;"/>
                    </g>
                    <g transform="matrix(4.16667,0,0,4.16667,0,0)">
                        <path d="M19.422,53.04C19.701,53.525 20.032,53.978 20.409,54.392C21.162,55.223 22.13,55.829 23.206,56.142C23.741,56.297 24.291,56.394 24.846,56.431C25.959,56.514 27.076,56.393 28.181,56.233C29.286,56.073 30.398,55.892 31.517,55.784C32.076,55.724 32.638,55.694 33.2,55.695C33.768,55.691 34.334,55.761 34.884,55.905C35.16,55.982 35.426,56.093 35.674,56.235C35.924,56.382 36.15,56.567 36.342,56.784C36.527,57.003 36.688,57.241 36.822,57.494C36.957,57.745 37.072,58.006 37.165,58.275C37.54,59.352 37.608,60.506 37.518,61.626C37.473,62.187 37.392,62.745 37.273,63.295C37.159,63.845 37.008,64.387 36.821,64.917L36.791,64.906C37.116,63.837 37.319,62.735 37.395,61.62C37.431,61.064 37.421,60.506 37.368,59.952C37.316,59.4 37.198,58.856 37.015,58.333C36.923,58.073 36.81,57.82 36.678,57.578C36.548,57.337 36.393,57.109 36.216,56.9C36.037,56.696 35.827,56.522 35.592,56.385C35.355,56.249 35.102,56.142 34.839,56.069C34.303,55.929 33.751,55.859 33.198,55.861C32.64,55.857 32.083,55.883 31.528,55.939C30.415,56.038 29.309,56.215 28.198,56.376C27.087,56.537 25.959,56.643 24.833,56.549C24.27,56.506 23.713,56.403 23.172,56.242C22.631,56.075 22.116,55.836 21.64,55.531C21.168,55.222 20.739,54.852 20.364,54.43C19.992,54.008 19.667,53.547 19.394,53.054L19.422,53.04Z" style="fill:rgb(18,18,18);fill-rule:nonzero;"/>
                    </g>
                    <g transform="matrix(4.16667,0,0,4.16667,0,0)">
                        <path d="M28.133,31.508C28.133,31.661 28.182,31.81 28.272,31.934C28.362,32.058 28.488,32.151 28.633,32.2C28.786,32.246 28.95,32.248 29.104,32.205C29.258,32.161 29.396,32.074 29.501,31.954C29.603,31.836 29.665,31.689 29.678,31.535C29.692,31.38 29.655,31.224 29.574,31.092C29.49,30.962 29.367,30.861 29.224,30.803C29.081,30.744 28.923,30.731 28.772,30.765C28.597,30.799 28.439,30.89 28.323,31.025C28.207,31.16 28.14,31.331 28.133,31.508C28.133,31.57 28.285,31.529 28.286,31.476C28.278,31.344 28.314,31.214 28.387,31.104C28.461,30.995 28.568,30.912 28.692,30.869C28.817,30.826 28.952,30.825 29.078,30.866C29.203,30.907 29.311,30.987 29.387,31.095C29.468,31.2 29.517,31.326 29.527,31.458C29.537,31.59 29.509,31.722 29.445,31.838C29.384,31.951 29.287,32.041 29.169,32.093C29.052,32.145 28.92,32.157 28.795,32.127C28.651,32.09 28.522,32.005 28.43,31.888C28.338,31.77 28.287,31.625 28.286,31.476C28.285,31.413 28.132,31.456 28.133,31.508Z" style="fill:rgb(18,18,18);fill-rule:nonzero;"/>
                    </g>
                    <g transform="matrix(4.16667,0,0,4.16667,0,0)">
                        <path d="M28.912,30.716C29.049,30.716 29.16,30.605 29.16,30.468C29.16,30.331 29.049,30.221 28.912,30.221C28.775,30.221 28.664,30.331 28.664,30.468C28.664,30.605 28.775,30.716 28.912,30.716Z" style="fill:rgb(18,18,18);fill-rule:nonzero;"/>
                    </g>
                    <g transform="matrix(4.16667,0,0,4.16667,0,0)">
                        <rect x="43.269" y="46.05" width="8.971" height="0.445" style="fill:rgb(18,18,18);"/>
                    </g>
                    <g transform="matrix(4.16667,0,0,4.16667,0,0)">
                        <path d="M52.24,46.495C52.363,46.495 52.462,46.395 52.462,46.272C52.462,46.15 52.363,46.05 52.24,46.05C52.117,46.05 52.018,46.15 52.018,46.272C52.018,46.395 52.117,46.495 52.24,46.495Z" style="fill:rgb(18,18,18);fill-rule:nonzero;"/>
                    </g>
                    <g transform="matrix(4.16667,0,0,4.16667,0,0)">
                        <path d="M56.44,39.382L56.154,39.233L52.467,46.39L52.825,46.396L56.44,39.382Z" style="fill:rgb(18,18,18);fill-rule:nonzero;"/>
                    </g>
                    <g transform="matrix(4.16667,0,0,4.16667,0,0)">
                        <path d="M52.825,46.54L52.467,46.533C52.442,46.532 52.419,46.526 52.398,46.513C52.376,46.501 52.359,46.484 52.346,46.463C52.334,46.442 52.328,46.418 52.328,46.393C52.328,46.369 52.334,46.345 52.346,46.324L56.033,39.168C56.041,39.151 56.054,39.136 56.068,39.123C56.083,39.111 56.1,39.101 56.118,39.096C56.137,39.09 56.156,39.088 56.175,39.09C56.195,39.091 56.213,39.097 56.23,39.106L56.517,39.253C56.55,39.271 56.575,39.301 56.587,39.337C56.593,39.355 56.595,39.374 56.593,39.393C56.592,39.412 56.586,39.43 56.578,39.447L52.964,46.458C52.951,46.484 52.931,46.505 52.907,46.52C52.882,46.534 52.854,46.541 52.825,46.54ZM52.7,46.251L52.738,46.251L56.246,39.442L56.215,39.426L52.7,46.251Z" style="fill:rgb(18,18,18);fill-rule:nonzero;"/>
                    </g>
                    <g transform="matrix(4.16667,0,0,4.16667,0,0)">
                        <path d="M48.609,46.05L51.209,39.623C51.209,39.623 54.945,39.247 56.154,39.233L52.828,46.047L48.609,46.05Z" style="fill:white;fill-rule:nonzero;"/>
                    </g>
                    <g transform="matrix(4.16667,0,0,4.16667,0,0)">
                        <path d="M52.831,46.193L48.609,46.193C48.585,46.193 48.562,46.187 48.541,46.176C48.521,46.165 48.503,46.15 48.49,46.13C48.477,46.111 48.469,46.088 48.466,46.065C48.464,46.041 48.467,46.018 48.476,45.996L51.076,39.569C51.086,39.545 51.102,39.524 51.123,39.508C51.144,39.493 51.169,39.483 51.195,39.48C51.348,39.465 54.947,39.103 56.152,39.09C56.176,39.091 56.2,39.097 56.221,39.109C56.242,39.121 56.26,39.138 56.273,39.158C56.286,39.179 56.293,39.202 56.294,39.226C56.296,39.251 56.291,39.275 56.281,39.297L52.956,46.11C52.944,46.134 52.927,46.155 52.905,46.169C52.883,46.184 52.858,46.192 52.831,46.193ZM48.825,45.907L52.742,45.907L55.924,39.384C54.673,39.428 51.843,39.704 51.312,39.757L48.825,45.907Z" style="fill:rgb(18,18,18);fill-rule:nonzero;"/>
                    </g>
                    <g transform="matrix(4.16667,0,0,4.16667,0,0)">
                        <path d="M50.945,42.109L53.979,42.109L54.579,40.655L51.412,40.756L50.945,42.109Z" style="fill:rgb(102,168,247);fill-rule:nonzero;"/>
                    </g>
                    <g transform="matrix(4.16667,0,0,4.16667,0,0)">
                        <path d="M51.779,43.975L53.179,43.975L53.778,42.522L52.381,42.522L51.779,43.975Z" style="fill:rgb(102,168,247);fill-rule:nonzero;"/>
                    </g>
                    <g transform="matrix(4.16667,0,0,4.16667,0,0)">
                        <path d="M32.808,26.542C32.398,26.45 32.783,25.95 32.188,25.843C31.643,25.749 31.892,25.115 31.14,25.152C30.387,25.188 30.384,24.665 29.722,24.904C29.595,24.951 29.461,24.972 29.327,24.965C29.392,24.928 29.257,24.38 29.948,24.424C30.244,24.443 30.145,23.993 30.418,23.774C30.634,23.603 31.016,23.753 31.276,23.32C31.427,23.068 31.326,22.815 31.276,22.563C31.226,22.312 31.578,21.958 31.578,21.655C31.578,21.352 31.073,21.201 31.381,20.746C31.587,20.436 31.027,19.989 31.282,19.636C31.618,19.166 30.836,18.955 31.029,18.425C31.231,17.87 30.805,17.859 30.373,17.92C30.02,17.971 30.46,17.235 29.666,17.416C28.556,17.668 29.212,17.012 28.305,17.218C27.634,17.366 27.346,16.511 26.588,17.066C26.238,17.323 25.478,16.561 25.024,17.066C24.57,17.571 24.116,16.764 23.358,17.47C22.601,18.176 21.995,17.47 21.491,18.278C20.986,19.085 21.507,19.333 21.148,19.752C20.597,20.394 20.486,21.143 20.835,21.558C21.303,22.115 21.137,22.416 21.34,22.819C21.656,23.451 22.097,22.918 22.299,23.324C22.479,23.685 22.244,24.247 23.459,24.132C24.519,24.033 23.963,25.595 25.126,24.968C25.888,24.556 26.547,25.781 26.598,25.796C26.414,25.884 26.052,26.102 26.124,26.409C26.223,26.817 25.442,26.832 25.729,27.362C26.032,27.917 25.376,28.017 25.869,28.438C26.444,28.932 25.628,29.38 26.345,29.64C26.981,29.869 26.185,30.187 26.938,30.44L27.594,29.885C27.594,29.885 27.89,29.38 27.897,29.33C27.543,28.876 28.216,27.861 28.906,28.068C29.411,28.22 29.673,28.702 29.461,28.976C29.217,29.293 29.571,30.131 29.571,30.131C29.548,29.869 29.572,29.605 29.642,29.352C29.719,29.128 30.093,29.034 30.136,28.859C30.244,28.424 30.412,28.136 31.03,28.246C31.752,28.374 31.876,27.604 32.187,27.427C32.451,27.276 32.642,27.35 32.695,27.507C32.748,27.664 32.975,27.524 33.011,27.772L33.293,27.714C33.293,27.714 33.638,26.728 32.808,26.542Z" style="fill:rgb(18,18,18);fill-rule:nonzero;"/>
                    </g>
                    <g transform="matrix(4.16667,0,0,4.16667,0,0)">
                        <path d="M23.138,62.122C21.649,62.117 20.165,61.96 18.709,61.651C15.752,61.03 12.961,59.788 10.521,58.006C10.464,57.959 10.427,57.893 10.418,57.82C10.409,57.747 10.428,57.673 10.471,57.614C10.515,57.555 10.579,57.515 10.651,57.501C10.723,57.488 10.798,57.503 10.859,57.543C13.234,59.277 15.951,60.486 18.828,61.089C20.246,61.39 21.69,61.544 23.139,61.548C23.212,61.552 23.281,61.584 23.331,61.638C23.382,61.691 23.409,61.762 23.409,61.835C23.409,61.908 23.382,61.979 23.331,62.032C23.281,62.085 23.212,62.117 23.139,62.122L23.138,62.122Z" style="fill:rgb(18,18,18);fill-rule:nonzero;"/>
                    </g>
                    <g transform="matrix(4.16667,0,0,4.16667,0,0)">
                        <path d="M17.683,71.03C17.587,71.03 17.493,71.001 17.413,70.947C17.333,70.893 17.272,70.816 17.237,70.727L17.232,70.713L15.247,64.03L9.02,67.403C8.905,67.464 8.773,67.484 8.645,67.46C8.517,67.437 8.401,67.37 8.316,67.272C8.231,67.174 8.181,67.05 8.176,66.92C8.17,66.791 8.208,66.663 8.285,66.558L8.295,66.558L14.178,59.416L15.425,63.615L19.598,61.355L18.17,70.606C18.158,70.713 18.11,70.813 18.035,70.889C17.959,70.966 17.861,71.015 17.754,71.029C17.73,71.031 17.706,71.031 17.683,71.03ZM17.504,70.624C17.52,70.666 17.551,70.701 17.59,70.724C17.629,70.746 17.674,70.754 17.719,70.748C17.763,70.741 17.804,70.719 17.834,70.686C17.864,70.652 17.882,70.61 17.885,70.565L19.222,61.875L15.503,63.891L17.504,70.624ZM8.518,66.73C8.481,66.783 8.462,66.847 8.466,66.911C8.469,66.976 8.494,67.037 8.537,67.086C8.58,67.135 8.637,67.167 8.701,67.179C8.764,67.19 8.83,67.18 8.887,67.15L15.165,63.75L14.055,60.01L8.518,66.73Z" style="fill:rgb(18,18,18);fill-rule:nonzero;"/>
                    </g>
                    <g transform="matrix(4.16667,0,0,4.16667,0,0)">
                        <path d="M8.247,65.636C8.236,65.636 8.224,65.633 8.214,65.627C8.205,65.623 8.198,65.617 8.191,65.61C8.185,65.602 8.18,65.594 8.178,65.584C8.175,65.575 8.174,65.566 8.175,65.556C8.176,65.546 8.178,65.537 8.183,65.528C8.321,65.265 8.469,65.017 8.626,64.753C8.824,64.431 9.021,64.099 9.201,63.726C9.205,63.717 9.21,63.709 9.217,63.701C9.225,63.694 9.233,63.689 9.242,63.685C9.252,63.682 9.262,63.68 9.272,63.68C9.282,63.681 9.292,63.683 9.301,63.688C9.31,63.692 9.318,63.699 9.324,63.706C9.33,63.714 9.335,63.723 9.338,63.733C9.341,63.742 9.341,63.753 9.34,63.763C9.338,63.773 9.335,63.782 9.33,63.791C9.144,64.168 8.943,64.503 8.75,64.827C8.594,65.088 8.446,65.335 8.31,65.596C8.305,65.608 8.296,65.618 8.284,65.625C8.273,65.632 8.261,65.636 8.247,65.636Z" style="fill:rgb(18,18,18);fill-rule:nonzero;"/>
                    </g>
                    <g transform="matrix(4.16667,0,0,4.16667,0,0)">
                        <path d="M8.071,64.681C8.058,64.681 8.046,64.678 8.036,64.672C8.025,64.665 8.016,64.657 8.009,64.646C8.003,64.635 8,64.624 7.999,64.611C7.999,64.599 8.002,64.587 8.008,64.576C8.195,64.226 8.273,64.063 8.349,63.906C8.425,63.749 8.504,63.582 8.693,63.231C8.697,63.222 8.703,63.215 8.711,63.209C8.718,63.203 8.726,63.199 8.735,63.196C8.744,63.193 8.754,63.192 8.763,63.193C8.772,63.194 8.781,63.197 8.79,63.201C8.798,63.205 8.805,63.211 8.811,63.219C8.817,63.226 8.822,63.234 8.825,63.243C8.827,63.252 8.828,63.262 8.827,63.271C8.826,63.28 8.824,63.289 8.819,63.298C8.633,63.647 8.555,63.81 8.479,63.968C8.403,64.126 8.323,64.291 8.134,64.644C8.128,64.655 8.119,64.665 8.108,64.671C8.096,64.678 8.084,64.681 8.071,64.681Z" style="fill:rgb(18,18,18);fill-rule:nonzero;"/>
                    </g>
                    <g transform="matrix(4.16667,0,0,4.16667,0,0)">
                        <path d="M20.003,66.483C19.984,66.483 19.966,66.475 19.952,66.461C19.939,66.448 19.931,66.43 19.931,66.41C19.931,65.772 19.931,65.113 20.081,64.534C20.083,64.525 20.087,64.516 20.093,64.509C20.099,64.502 20.106,64.495 20.114,64.491C20.122,64.486 20.131,64.483 20.141,64.481C20.15,64.48 20.159,64.481 20.168,64.483C20.177,64.486 20.186,64.49 20.194,64.496C20.201,64.501 20.207,64.508 20.212,64.516C20.217,64.525 20.22,64.534 20.221,64.543C20.222,64.552 20.222,64.562 20.219,64.571C20.074,65.131 20.074,65.78 20.074,66.409C20.074,66.419 20.073,66.428 20.069,66.437C20.066,66.446 20.061,66.454 20.054,66.461C20.047,66.468 20.039,66.473 20.031,66.477C20.022,66.481 20.013,66.483 20.003,66.483Z" style="fill:rgb(18,18,18);fill-rule:nonzero;"/>
                    </g>
                    <g transform="matrix(4.16667,0,0,4.16667,0,0)">
                        <path d="M16.537,71.399C17.547,71.399 18.366,71.26 18.366,71.087C18.366,70.915 17.547,70.775 16.537,70.775C15.527,70.775 14.708,70.915 14.708,71.087C14.708,71.26 15.527,71.399 16.537,71.399Z" style="fill:rgb(18,18,18);fill-rule:nonzero;"/>
                    </g>
                    <g transform="matrix(4.16667,0,0,4.16667,0,0)">
                        <path d="M23.211,61.753C21.723,61.749 20.238,61.591 18.782,61.282C15.825,60.662 13.034,59.42 10.594,57.638C10.537,57.592 10.499,57.526 10.49,57.452C10.48,57.379 10.499,57.305 10.542,57.246C10.585,57.186 10.65,57.146 10.723,57.132C10.795,57.119 10.87,57.134 10.932,57.174C13.306,58.909 16.023,60.118 18.901,60.721C20.318,61.022 21.763,61.176 23.212,61.18C23.251,61.177 23.29,61.183 23.327,61.196C23.364,61.21 23.398,61.231 23.426,61.257C23.455,61.284 23.477,61.317 23.493,61.353C23.508,61.389 23.516,61.427 23.516,61.466C23.516,61.506 23.508,61.544 23.493,61.58C23.477,61.616 23.455,61.649 23.426,61.676C23.398,61.702 23.364,61.723 23.327,61.737C23.29,61.75 23.251,61.756 23.212,61.753L23.211,61.753Z" style="fill:rgb(102,168,247);fill-rule:nonzero;"/>
                    </g>
                </g>
            </g>
        </g>
    </g>
</svg>
