<svg xmlns="http://www.w3.org/2000/svg" xml:space="preserve" fill-rule="evenodd" stroke-linejoin="round" stroke-miterlimit="2" clip-rule="evenodd" viewBox="0 0 1269 804">
  <path fill="#acd0ff" d="M0 37.5h1268.2v766H0z"/>
  <path fill="#acd0ff" fill-rule="nonzero" d="m634.1 0 287 248.5H347L634.2 0Z"/>
  <ellipse cx="84.5" cy="79.5" fill="#d6e8ff" fill-opacity=".3" rx="84.5" ry="79.5" transform="matrix(4 0 0 4 180 83.6)"/>
  <path fill="#121212" fill-rule="nonzero" d="M1207 767.8c0 4.3-60.3 22.2-101.1 3.7-9.4-4.2-8-.2-18.8.6-18.4 1.3-39.3-.5-39.3-4 0-3.7 22.4-6.5 37-6.3 18.8.2 41.5-4.6 66.8-4.6 47 0 55.4 6.3 55.4 10.6Z"/>
  <path fill="#fff" d="M1159 671.6h4.3v94.9h-4.3z"/>
  <path fill="#121212" fill-rule="nonzero" d="M1163.8 767.4h-5.6v-96.3h5.6v96.3Zm-4.4-1.2h3.2v-93.8h-3.2v93.8Z"/>
  <path fill="#fff" fill-rule="nonzero" d="M1148.3 766.5a18.9 18.9 0 0 1 25.4 0c2 2.7-26 4-25.4 0Z"/>
  <path fill="#121212" fill-rule="nonzero" d="M1159.8 769.7c-4.5 0-8.7-.4-10.6-1.3-1.4-.6-1.6-1.4-1.5-2v-.2l.2-.1a19.5 19.5 0 0 1 26.2 0 1 1 0 0 1 0 1.3c-1 1.4-7.9 2.3-14.3 2.3Zm-10.8-3 .7.6c4.8 2 21.4 1 23.4-.5a18.3 18.3 0 0 0-24.1 0Z"/>
  <path fill="#fff" fill-rule="nonzero" d="M1175.2 671a18.9 18.9 0 0 1-28.4 0h28.4Z"/>
  <path fill="#121212" fill-rule="nonzero" d="M1174.6 670.9c-2.7 3-6.2 5-10.1 6a17.8 17.8 0 0 1-17.1-5.9l-.5.5h28.4c.2 0 .7 0 .6-.4 0-.3-.6-.4-.8-.4h-28.4c-.2 0-.8.1-.5.5a20 20 0 0 0 29.7.1c.3-.4-1-.8-1.3-.4Z"/>
  <path fill="#fff" d="M1119 664.7h86.4v6H1119z"/>
  <path fill="#121212" fill-rule="nonzero" d="M1206.2 671.4h-87.6V664h87.6v7.4Zm-86.4-1.3h85.2v-4.9h-85.2v5Z"/>
  <path fill="#e70070" fill-rule="nonzero" d="M1046.4 681.9v-.2l1.3-.9.1.2c-.5.2-1 .5-1.4.9Zm-14.5 9.8v-.1c5-2.3 7.8-4.6 10.5-6.8l2.9-2.3.1.1-2.9 2.3c-2.7 2.2-5.5 4.5-10.6 6.8Z"/>
  <path fill="#fff" fill-rule="nonzero" d="M1026.4 693.8c15.8-5.5 15.4-11 26.7-15.5a38 38 0 0 1 22.7-2.3c27.5 5.8 39.3 10.6 49.5 19.3 23 19.7-12.7 57-10.5 60 2.2 3 4.6 7.2 7.7 8.7 1.3.7 2.5 1.3 3.6 1.7.8.4.5 2.5-.4 2.5h-6.9c-3.9 0-7.5-4.7-10.7-6-3.2-1.4 1.2-5.9 1.2-7.8 0-11.8 1.6-34.4-7.3-36.3-16.3-3.5-31.6 2.7-48.8 2.4a46.3 46.3 0 0 1-41.3-24.2s4 1.2 14.5-2.5Z"/>
  <path fill="#121212" fill-rule="nonzero" d="M1123.1 768.9h-4.3c-2.6 0-5-2-7.3-3.7a18 18 0 0 0-3.6-2.5 2.3 2.3 0 0 1-1.4-1.4c-.5-1.3.4-3 1.2-4.5.5-1 1-1.9 1-2.4v-4.8c.2-11.7.5-29.3-6.9-31-9.4-2-18.5-.6-28.1.7-6.6 1-13.4 2-20.5 1.8a52 52 0 0 1-24-6.3 43.3 43.3 0 0 1-17.8-18.2l-.7-1.4 1.4.5s4 1.1 14-2.4a45 45 0 0 0 16-9 39.5 39.5 0 0 1 33.9-9c27.2 5.9 39.2 10.6 49.7 19.5 7.6 6.6 9.7 15.7 6.4 27.4-2.8 9.6-8.8 19-12.7 25.3-2.1 3.3-4.3 6.7-4.1 7.4l1.2 1.7c1.8 2.7 4 5.7 6.4 6.9 1 .6 2.3 1.1 3.5 1.7.8.3 1 1.4.7 2.2-.1.9-.7 1.5-1.3 1.5h-2.7Zm-31.8-52.5c3.7 0 7.3.3 10.8 1 8.3 1.9 8 19.4 7.9 32.2v4.8c0 .8-.6 1.8-1.2 3s-1.5 2.7-1.2 3.5l.3.4.5.3c1.2.5 2.5 1.5 3.9 2.6 2.1 1.7 4.3 3.4 6.6 3.4h6.8c.2-.2.2-.5.2-.7v-.6l-3.6-1.7a21.7 21.7 0 0 1-6.8-7.3l-1.2-1.7c-.8-1 .4-3 4-8.8 8.2-12.8 23.3-36.7 6.6-51-10.3-8.9-22.2-13.5-49.2-19.2a38 38 0 0 0-22.4 2.3c-5 2-7.6 4-10.5 6.4-3.6 3-7.4 6-16.2 9.1a35 35 0 0 1-13.5 2.7c3.8 7 9.6 12.8 16.6 16.6 7.2 4 15.3 6 23.5 6.2 7 .1 13.8-.8 20.3-1.8 6-.9 12-1.7 17.8-1.7Z"/>
  <path fill="#121212" fill-rule="nonzero" d="M1068.4 675.2s-16.9-13-15.9-19.6c0 0 17.8 17.6 33.8 18.7a63 63 0 0 0 27.1-3.5c6.8 3.7 11.8 9.8 11.8 15 0 1.8-.8 4.5-2.1 7.7-10.3-7.5-29.2-15.2-54.7-18.3Z"/>
  <path fill="#fff" fill-rule="nonzero" d="M1080.6 753c-3.1 3.7-5 6.3-4.3 7 2.7 2.4 13 6.8 13 6.8a.8.8 0 0 1 .4 1l-.3.4-.5.2h-6.8c-1.8-.2-3-.7-4.7-.7-2.8 0-5.6.3-8.4.6a2.2 2.2 0 0 1-2.2-3c.7-1.8 2.3-4 3.3-7.2l2.5-7.5 8 2.4Z"/>
  <path fill="#121212" fill-rule="nonzero" d="M1085.2 769a53.3 53.3 0 0 1-7.7-.6c-2.8 0-5.6.2-8.4.6h-.1a2.9 2.9 0 0 1-2.7-3.8c.3-1 .8-2 1.3-2.8l2-4.5 2.4-7.5.2-.6 9.5 2.8-.6.7c-3.9 4.6-4.3 6-4.3 6.2a75 75 0 0 0 12.7 6.7h.1c.3.2.5.5.6.8v.9a1.5 1.5 0 0 1-1.4 1s-1.6.2-3.6.2Zm-7.7-1.9 2.4.3 2.3.4h6.8v-.2l.1-.1v-.1c-1-.4-10.6-4.5-13.2-7-.8-.7-.4-2.1 3.7-7.1l-6.5-2-2.3 7a33 33 0 0 1-2.1 4.7c-.5.8-.9 1.7-1.2 2.6l-.1.8a1.6 1.6 0 0 0 .8 1.2l.8.2a79 79 0 0 1 8.5-.7Z"/>
  <path fill="#fff" fill-rule="nonzero" d="M1073.6 591.1c-2.8-3.7-3.6-12.7 3.8-16.3 11.2-5.5 24.9 9 17.5 17-3.2 3.6.1 7.6-.8 9.2-1 1.6-2.3 1-3.3 1.5-1.9 1-3 3.7-6 4.3-3.3.8-5.3-2.7-6.4-3-3.2-1-12.3 1.8-7 14.8-23.6 2.5-31.4-11.5-31.4-11.5 7.5-4.2 16.7.5 33.6-16Z"/>
  <path fill="#121212" fill-rule="nonzero" d="M1066 619.5a35 35 0 0 1-19.5-5.2 22 22 0 0 1-7-7l-.3-.4.5-.3c2.5-1.4 5-1.9 8-2.4 6.2-1 14-2.4 25-13.1a13 13 0 0 1-1.4-9.6 10.6 10.6 0 0 1 5.8-7.3 12.8 12.8 0 0 1 10-.5 17 17 0 0 1 7.9 5.7c3.3 4.5 3.5 9.4.4 12.9-1.9 2-1.4 4.2-.9 6 .3 1.2.6 2.2.1 3a2.7 2.7 0 0 1-2.6 1.5l-1 .2-1.7 1.6a8.5 8.5 0 0 1-4.4 2.9c-2.6.5-4.5-1.2-5.7-2.3a5 5 0 0 0-1-.8c-1.3-.5-4.2 0-6 2-1.7 1.8-3 5.3-.3 12l.3.7-.9.1-5.4.3Zm-25.1-12.2c1.7 2.5 10 12.5 29.5 10.8-2.5-6.8-1-10.6.8-12.5a7.8 7.8 0 0 1 7.4-2.4c.6.2 1 .6 1.5 1 1 1 2.6 2.5 4.6 2 1.7-.3 2.7-1.4 3.7-2.5.6-.7 1.3-1.2 2-1.7.5-.3 1-.4 1.5-.4.7 0 1.2-.1 1.7-.9.2-.3 0-1.2-.3-2-.5-2-1.1-4.7 1.2-7.3 3.2-3.5 1.8-8.1-.5-11.2-4.7-6.2-11.7-7.1-16.4-4.9a9.4 9.4 0 0 0-5.1 6.5c-.9 3.6.2 7.2 1.6 9l.3.4-.4.4a43 43 0 0 1-26 13.8c-2.7.5-5 .9-7.1 2Z"/>
  <path fill="#fff" fill-rule="nonzero" d="M1040 607s7.8 14 31.3 11.6a61 61 0 0 0 19.4 29.2 36 36 0 0 0 8.3 5.2c14.8 6.7 15.2-1.2 34.5 1.2 12.2 1.5 15.5 6.5 15.2 8.5h-8.6a9.3 9.3 0 0 0-6-2.3c-4.1 0-10.5 4.2-16.3 7.7a49.1 49.1 0 0 1-40.2 3.9c-12-5-25.1-16.4-25.1-16.4 0 9 15.9 19.6 15.9 19.6-7 .1-10.4 1.1-15.3 3-11.3 4.5-10.9 10-26.7 15.6-10.5 3.7-14.5 2.4-14.5 2.4-3.8-8-7.5-19-7.5-31.5 0-23.7 19.6-46.7 35.6-57.6Z"/>
  <path fill="#121212" fill-rule="nonzero" d="M1014 697c-.7.1-1.5 0-2.3-.2h-.2l-.1-.3c-3.5-7-7.6-18.3-7.6-31.8 0-23 18.6-46.3 35.8-58.1l1-.7v1c.9 1.4 9 13.3 30.6 11h.5l.2.5c4.3 11.9 8.7 20 19.2 29a35 35 0 0 0 8.2 5 22 22 0 0 0 16.6 2c4-.9 9-1.9 17.6-.8 9.6 1.1 13.4 4.3 14.8 6.2.7 1 1.1 2.1 1 3v.5h-9.4l-.2-.2a8.7 8.7 0 0 0-5.5-2c-3.7 0-9 3.2-14.3 6.4l-1.7 1a49.9 49.9 0 0 1-40.8 4c-10-4-20.7-12.5-24.1-15.4 1.5 8.2 15.3 17.5 15.4 17.6l1.6 1-2 .1c-6.6.2-10 1-15 3a35 35 0 0 0-10.4 6.5c-3.7 3-7.4 6-16.3 9.1a38.7 38.7 0 0 1-12.5 2.7Zm-1.6-1.3c1 .2 5 .6 13.8-2.5 8.6-3 12.3-6 15.9-8.9 2.9-2.4 5.6-4.6 10.8-6.6 4.5-1.8 8-2.8 13.6-3-4-3-14.6-11.5-14.6-19v-1.4l1 .9c.1 0 13.2 11.4 25 16.2 5 2.1 23.5 6 39.6-3.9l1.7-1c5.4-3.3 11-6.7 15-6.7 2.2 0 4.4.8 6.1 2.3h7.8a4 4 0 0 0-.8-1.6c-1-1.3-4.4-4.5-13.9-5.7-8.5-1-13.2 0-17.3.8-5 1-9 1.8-17.3-2-3-1.4-6-3.1-8.5-5.3-10.6-9-15-17.2-19.4-29-14.5 1.3-23-3.3-27.7-7.5a21.3 21.3 0 0 1-3.4-3.8c-16.8 11.7-34.8 34.3-34.8 56.7 0 13 4 24 7.4 31Zm106.9 50.5-8.6-2.2-1.2-.3c-.5 0-.7.7-.2.8l8.6 2.2 1.2.3h.2l.2-.3a.4.4 0 0 0-.2-.5Z"/>
  <path fill="#121212" fill-rule="nonzero" d="M1087.7 645.4a29.3 29.3 0 0 0-13.3 15 28.8 28.8 0 0 0-1.7 10.6l.3.2c.1 0 .2 0 .3-.2l.1-.3a27.6 27.6 0 0 1 14.7-24.6c.5-.2 0-1-.4-.7Z"/>
  <path fill="#121212" fill-rule="nonzero" d="M1086.6 644.3c-2.4.5-4.6 2-6.4 3.6a25.5 25.5 0 0 0-4.7 5.8 35.2 35.2 0 0 0-3 6.8l-.6 1.8-.5 1.8-.2 1-.2.8-.4 1.9-1.2-.2.5-2 .2-.9.2-.9.6-1.8.6-1.8a27.4 27.4 0 0 1 8.3-12.8c2-1.7 4.2-3 6.7-3.6l.1.5Zm-36.6-26c-2.5-1-4.8-2.3-7-3.8a27.1 27.1 0 0 1-5.7-5.5l.6-.4a26 26 0 0 0 5.4 5.6c2 1.6 4.3 3 6.6 4.1Zm22.1 2.5c-2.6.8-5.3 1.2-8 1 2.7-.2 5.3-.7 7.8-1.6l.2.6Z"/>
  <path fill="#66a8f7" fill-rule="nonzero" d="M1056.3 648a6.8 6.8 0 1 0 0-13.5 6.8 6.8 0 0 0 0 13.6Zm-16.6-19a5.8 5.8 0 1 0 0-11.6 5.8 5.8 0 0 0 0 11.5Zm-7.8 39.2a5.5 5.5 0 1 0 0-11 5.5 5.5 0 0 0 0 11Zm-14.2-15.2a4.9 4.9 0 1 0 0-9.8 4.9 4.9 0 0 0 0 9.7Zm33.9 15.6a2.9 2.9 0 1 0 0-5.8 2.9 2.9 0 0 0 0 5.8Zm-18.1-21.1a2.9 2.9 0 1 0 0-5.7 2.9 2.9 0 0 0 0 5.7Zm31.6 9.8a3.6 3.6 0 1 0 0-7.2 3.6 3.6 0 0 0 0 7.2Zm-47.4 25.5a5.6 5.6 0 1 0 0-11.1 5.6 5.6 0 0 0 0 11.1Zm52.3-48.2a3.2 3.2 0 1 0 0-6.3 3.2 3.2 0 0 0 0 6.3Z"/>
  <path fill="#121212" fill-rule="nonzero" d="M1074.5 674.4a30.5 30.5 0 0 0-17-.8l-2 .5-1 .3-.6.2-.5.2-2 .9-.9.4-1 .5c-2.4 1.4-4.8 3.1-7.1 4.7l-7.2 5a41.6 41.6 0 0 1-15.9 7 36 36 0 0 1-8.7.5v-.7h4.3a38.3 38.3 0 0 0 12.4-3.3c2.6-1.2 5.1-2.6 7.5-4.2l7.1-4.8c2.4-1.7 4.8-3.3 7.4-4.7l1-.5.9-.5 2-.8.5-.2.6-.2 1-.3 2.1-.6a31.2 31.2 0 0 1 17.2 1.2l-.1.2ZM1102 718c2.4.6 4.1 2.7 5.2 5.7-6.4 7.6-20 21.5-26.6 29.3l-8-2.4c3.6-11 7.2-25.8 9.4-33a61 61 0 0 1 20 .5Z"/>
  <path fill="#121212" fill-rule="nonzero" d="m1080.9 753.6-9-2.6.1-.6a438 438 0 0 0 6.3-22l3.1-11 .2-.4h.4a62 62 0 0 1 20 .5c2.6.5 4.5 2.6 5.8 6l.1.4-.2.3-12.9 14c-5 5.5-10.3 11.2-13.7 15.2l-.2.2Zm-7.5-3.4 7 2c3.4-4 8.6-9.5 13.5-14.8 4.7-5 9.5-10.1 12.6-13.8-1.1-2.9-2.7-4.5-4.7-5a61 61 0 0 0-19.3-.4l-3 10.6c-1.8 6.9-4 14.7-6 21.4Z"/>
  <path fill="#121212" fill-rule="nonzero" d="M1038.7 689.5a27.7 27.7 0 0 0 10.5 10.3c2.3 1.1 4.6 2 7 2.5 2.5.5 5 .8 7.5 1 5 .1 10-.4 14.9-1.1l7.5-1 3.7-.4a58.2 58.2 0 0 1 11.3-.1c2.6.2 5 .8 7.4 1.9 2.3 1.1 4.3 2.9 5.7 5 1.3 2.3 2.3 4.6 2.8 7.1a54.7 54.7 0 0 1 .5 15c-.5 5.1-1.6 10-3.1 14.8h-.1a84.1 84.1 0 0 0 3-22.2c-.1-2.5-.4-5-1-7.4-.5-2.4-1.5-4.7-2.8-6.8l-.5-.8-.6-.7a5 5 0 0 0-1.2-1.3l-.3-.3-1.1-.9-.8-.4-.8-.5c-2.3-1-4.7-1.6-7.1-1.8a47 47 0 0 0-7.5-.2c-5 .3-10 1-15 1.6-4.9.6-10 1.2-15 1a29.8 29.8 0 0 1-14.5-3.7 25.5 25.5 0 0 1-10.6-10.6h.2Z"/>
  <path fill="#121212" fill-rule="nonzero" d="M1037.6 692.4c1.2 2 2.6 4 4.2 5.8a26 26 0 0 0 12 7.5c2.3.6 4.7 1 7 1.2a66 66 0 0 0 14.4-.8c4.7-.7 9.5-1.5 14.3-2l7.2-.3c2.5 0 4.9.2 7.3.9a13.6 13.6 0 0 1 6.3 3.7l2 3 1.4 3.4c1.7 4.7 2 9.6 1.6 14.4a54.5 54.5 0 0 1-3 14.2h-.2a63.3 63.3 0 0 0 2.5-21.4 29.4 29.4 0 0 0-3-10.2 13.7 13.7 0 0 0-4.6-5.1c-1-.6-2.1-1-3.2-1.3-2.3-.6-4.7-1-7-1-2.5 0-4.9.2-7.3.4-4.7.4-9.5 1.2-14.3 1.9-4.7.7-9.6 1.1-14.4.7a26.9 26.9 0 0 1-23.4-15h.2Zm37.4-92.5a3.1 3.1 0 0 0 2.1 3 3.6 3.6 0 0 0 3.7-1 3.2 3.2 0 0 0 .4-3.8 3.2 3.2 0 0 0-3.5-1.4 3.4 3.4 0 0 0-2.7 3.2c0 .3.6 0 .6-.1a2.6 2.6 0 0 1 4.7-1.7 3 3 0 0 1 .3 3.2 2.5 2.5 0 0 1-2.8 1.3 3 3 0 0 1-2.2-2.8c0-.3-.6-.1-.6.1Zm3.3-3.4a1 1 0 1 0 0-2.1 1 1 0 0 0 0 2Z"/>
  <path fill="#121212" d="M1140.1 662.1h38.6v1.7h-38.6z"/>
  <path fill="#121212" fill-rule="nonzero" d="M1178.5 664.3a1 1 0 1 0 0-2 1 1 0 0 0 0 2Z"/>
  <path fill="#121212" fill-rule="nonzero" d="m1196.5 633.7-1.2-.6-15.8 30.7h1.5l15.5-30Z"/>
  <path fill="#121212" fill-rule="nonzero" d="M1181 664.4h-1.8l-.3-.3v-.6l15.9-30.7.1-.2a.6.6 0 0 1 .5-.1h.2l1.3.7.3.3v.5l-15.6 30-.2.4h-.4Zm-.5-1.2h.1l15-29.2v-.1l-15.1 29.3Z"/>
  <path fill="#fff" fill-rule="nonzero" d="m1162.9 662.3 11.2-27.6s16-1.6 21.2-1.6l-14.3 29.2h-18Z"/>
  <path fill="#121212" fill-rule="nonzero" d="M1181 663h-18a.6.6 0 0 1-.5-.3l-.1-.3v-.3l11.2-27.6.2-.3h.3c.7-.1 16.1-1.7 21.3-1.7h.3l.2.2v.6l-14.2 29.3a.6.6 0 0 1-.6.4Zm-17.2-1.3h16.8l13.7-28c-5.4.2-17.5 1.4-19.8 1.6l-10.7 26.4Z"/>
  <path fill="#66a8f7" fill-rule="nonzero" d="M1173 645.4h13l2.5-6.2-13.6.4-2 5.8Zm3.5 8h6l2.6-6.2h-6l-2.6 6.2Z"/>
  <path fill="#121212" fill-rule="nonzero" d="M1095 578.6c-1.7-.4 0-2.6-2.6-3-2.4-.4-1.3-3.2-4.5-3-3.3.2-3.3-2-6.1-1l-1.7.2c.3-.2-.3-2.5 2.7-2.3 1.2 0 .8-1.9 2-2.8.9-.8 2.5-.1 3.7-2 .6-1 .2-2.1 0-3.2-.3-1 1.3-2.6 1.3-4 0-1.2-2.2-1.9-.9-3.8.9-1.4-1.5-3.3-.4-4.8 1.4-2-2-3-1.1-5.2.9-2.4-1-2.4-2.8-2.2-1.5.3.4-2.9-3-2.1-4.8 1-2-1.8-5.9-.9-2.9.7-4.1-3-7.4-.6-1.5 1-4.7-2.2-6.7 0-2 2.1-3.9-1.3-7.1 1.7-3.3 3-5.9 0-8 3.5-2.2 3.4 0 4.5-1.5 6.3-2.4 2.8-2.9 6-1.4 7.8 2 2.4 1.3 3.7 2.2 5.4 1.4 2.7 3.2.4 4.1 2.2.8 1.5-.2 4 5 3.4 4.5-.4 2.2 6.3 7.2 3.6 3.2-1.8 6 3.5 6.3 3.6-.8.3-2.4 1.3-2 2.6.4 1.8-3 1.8-1.8 4 1.3 2.5-1.5 2.9.6 4.7 2.5 2.1-1 4 2 5.2 2.8 1-.6 2.3 2.6 3.4l2.8-2.4 1.4-2.4c-1.6-2 1.3-6.3 4.3-5.4 2.2.7 3.3 2.7 2.4 4-1 1.3.4 4.9.4 4.9 0-1.1 0-2.3.3-3.4.4-1 2-1.3 2.2-2 .4-2 1.2-3.2 3.8-2.7 3.1.5 3.6-2.8 5-3.5 1.1-.7 2-.4 2.2.3.2.7 1.2 0 1.3 1.2l1.2-.3s1.5-4.2-2-5Zm-41.5 152.8a93.1 93.1 0 0 1-54.2-17.7 1.2 1.2 0 0 1-.2-1.7c.2-.3.5-.4.8-.5.3 0 .6 0 .9.2a89 89 0 0 0 52.7 17.2c.3 0 .6.1.8.4.3.2.4.5.4.8 0 .3-.1.6-.4.9l-.8.4Z"/>
  <path fill="#121212" fill-rule="nonzero" d="M1030 769.6a2 2 0 0 1-1.8-1.3l-8.6-28.7L993 754a2.5 2.5 0 0 1-3.2-3.6l25.3-30.7 5.4 18 18-9.6-6.2 39.7a2 2 0 0 1-2.1 1.8Zm-.7-1.7a.9.9 0 0 0 1 .5.9.9 0 0 0 .7-.8l5.7-37.3-16 8.7 8.6 28.9ZM990.7 751a1.2 1.2 0 0 0 .1 1.6 1.2 1.2 0 0 0 1.5.3l27-14.6-4.8-16.1-23.8 28.8Zm-1.1-4.6h-.2l-.1-.2v-.2l1.9-3.3a48.8 48.8 0 0 0 2.8-4.6.3.3 0 0 1 .3.2v.2l-2.6 4.5-1.9 3.3v.1h-.2Zm-.8-4.1h-.1l-.2-.1v-.3l1.5-2.9 1.5-2.9a.3.3 0 0 1 .3-.1h.1l.2.2v.2c-.9 1.5-1.2 2.2-1.5 2.9a65.3 65.3 0 0 1-1.8 3Zm51.2 7.7h-.2v-.2c0-2.8 0-5.6.6-8v-.2h.1l.1-.1h.2a.3.3 0 0 1 .2.4c-.6 2.4-.6 5.2-.6 7.9l-.1.2h-.2Z"/>
  <path fill="#121212" fill-rule="nonzero" d="M1025.2 771.2c4.3 0 7.8-.6 7.8-1.3 0-.8-3.5-1.4-7.8-1.4-4.4 0-7.9.6-7.9 1.4 0 .7 3.5 1.3 7.9 1.3Z"/>
  <path fill="#66a8f7" fill-rule="nonzero" d="M1053.8 729.8a92.8 92.8 0 0 1-54.2-17.7c-.2-.2-.4-.5-.4-.8a1.2 1.2 0 0 1 1-1.4c.3 0 .6 0 .9.2a88.9 88.9 0 0 0 53.2 17.3l.5.2a1.3 1.3 0 0 1 .3 1 1.3 1.3 0 0 1-.3.8l-.5.3h-.5Z"/>
</svg>