<svg width="24" height="24" viewBox="0 0 24 24" fill="none" xmlns="http://www.w3.org/2000/svg">
<g id="Frame 15131">
<path id="Rectangle 9138" d="M0.5 12C0.5 5.64873 5.64873 0.5 12 0.5C18.3513 0.5 23.5 5.64873 23.5 12V22.2439C23.5 22.9376 22.9376 23.5 22.2439 23.5H12C5.64873 23.5 0.5 18.3513 0.5 12Z" fill="#394150" stroke="#394150"/>
<path id="Subtract" fill-rule="evenodd" clip-rule="evenodd" d="M12 1C5.92487 1 1 5.92487 1 12C1 18.0751 5.92487 23 12 23H21.3902C22.2793 23 23 22.2793 23 21.3902V12C23 5.92487 18.0751 1 12 1ZM11.3913 11.9184C11.1673 12.3104 11.0553 12.7752 11.0553 13.3128V13.8672H13.2729V13.5984C13.2729 13.2064 13.3401 12.8816 13.4745 12.624C13.6201 12.3664 13.8833 12.0584 14.2641 11.7C14.7457 11.2408 15.1097 10.804 15.3561 10.3896C15.6025 9.97522 15.7257 9.47682 15.7257 8.89442C15.7257 8.30082 15.5689 7.76322 15.2553 7.28162C14.9529 6.78882 14.5273 6.40242 13.9785 6.12242C13.4297 5.84242 12.8025 5.70242 12.0969 5.70242C11.1561 5.70242 10.3721 5.96562 9.74494 6.49202C9.12893 7.00722 8.71453 7.62322 8.50173 8.34002L10.4337 9.14642C10.5569 8.75442 10.7585 8.42962 11.0385 8.17202C11.3297 7.90322 11.6993 7.76882 12.1473 7.76882C12.5729 7.76882 12.9145 7.89202 13.1721 8.13842C13.4297 8.37362 13.5585 8.66482 13.5585 9.01202C13.5585 9.30322 13.4801 9.56082 13.3233 9.78482C13.1777 10.0088 12.9369 10.272 12.6009 10.5744C12.0297 11.0784 11.6265 11.5264 11.3913 11.9184ZM11.1057 17.6808C11.3969 17.9608 11.7441 18.1008 12.1473 18.1008C12.5505 18.1008 12.8921 17.9608 13.1721 17.6808C13.4521 17.3896 13.5921 17.0424 13.5921 16.6392C13.5921 16.236 13.4521 15.8944 13.1721 15.6144C12.8921 15.3344 12.5505 15.1944 12.1473 15.1944C11.7441 15.1944 11.3969 15.3344 11.1057 15.6144C10.8257 15.8944 10.6857 16.236 10.6857 16.6392C10.6857 17.0424 10.8257 17.3896 11.1057 17.6808Z" fill="white"/>
</g>
</svg>
