<svg width="27" height="27" viewBox="0 0 27 27" fill="none" xmlns="http://www.w3.org/2000/svg">
<path d="M20.25 11.511C21.1341 11.7955 21.75 12.6392 21.75 13.6082V17.8938C21.75 19.0304 20.9026 19.9943 19.7697 20.0867C19.4308 20.1144 19.0909 20.1386 18.75 20.1592V23.25L15.75 20.25C14.3963 20.25 13.0556 20.1948 11.7302 20.0866C11.4319 20.0623 11.1534 19.9775 10.9049 19.8451M20.25 11.511C20.0986 11.4623 19.9393 11.43 19.7739 11.4163C18.4472 11.3062 17.1051 11.25 15.75 11.25C14.3948 11.25 13.0528 11.3062 11.7261 11.4163C10.595 11.5101 9.75 12.4732 9.75 13.6082V17.8937C9.75 18.731 10.2099 19.4746 10.9049 19.8451M20.25 11.511V9.63731C20.25 8.01589 19.0983 6.61065 17.4903 6.40191C15.4478 6.13676 13.365 6 11.2503 6C9.13533 6 7.05233 6.13678 5.00963 6.40199C3.40173 6.61074 2.25 8.01598 2.25 9.63738V15.8626C2.25 17.484 3.40173 18.8893 5.00964 19.098C5.58661 19.1729 6.16679 19.2376 6.75 19.2918V24L10.9049 19.8451" stroke="#0F172A" stroke-width="1.2" stroke-linecap="round" stroke-linejoin="round"/>
<circle cx="19" cy="8" r="7" fill="#4F73C6" stroke="white" stroke-width="2"/>
<circle cx="16" cy="8" r="1" fill="white"/>
<circle cx="19" cy="8" r="1" fill="white"/>
<circle cx="22" cy="8" r="1" fill="white"/>
</svg>
