<svg width="92" height="58" viewBox="0 0 92 58" fill="none" xmlns="http://www.w3.org/2000/svg">
<path d="M91.2818 29.4748C90.687 28.3242 90.9149 26.7131 90.7035 25.415C90.4401 23.7962 89.7424 22.2786 88.9966 20.7781C86.4521 15.6595 82.3188 11.5325 77.3333 8.18451C66.5328 0.930922 51.8137 -0.602071 38.7038 0.766509C31.3881 1.53024 25.0929 4.82227 22.1674 11.2362C20.2118 15.5235 22.0698 18.3913 25.2097 21.4453C27.8454 24.0086 31.4221 27.0735 30.0548 30.9619C27.8185 37.3227 16.1184 38.2836 18.173 46.646C21.3325 59.5056 44.3899 58.2887 54.6827 56.708C68.0347 54.6579 93.9436 47.944 91.4506 31.1772C91.2576 29.8794 90.7168 28.6277 90.6989 27.3014M18.6793 21.3894C18.1767 26.9422 11.2009 28.2009 6.30996 26.6979C0.300758 24.8513 -0.877984 18.7192 1.713 13.7576C3.90765 9.55483 8.76292 8.27869 13.1327 10.2598C17.9938 12.4635 18.9581 17.794 18.5928 22.4269" fill="#ECF1F9" fill-opacity="0.53"/>
<path d="M83.625 50.625L74.3142 41.3142M74.3142 41.3142C76.746 38.8825 78.25 35.5232 78.25 31.8125C78.25 24.3912 72.2338 18.375 64.8125 18.375C57.3912 18.375 51.375 24.3912 51.375 31.8125C51.375 39.2338 57.3912 45.25 64.8125 45.25C68.5232 45.25 71.8825 43.746 74.3142 41.3142Z" stroke="#9EA5B6" stroke-width="1.5" stroke-linecap="round" stroke-linejoin="round"/>
<path d="M34.4999 22.0007C34.3068 22.0007 34.1504 21.8443 34.1504 21.6512V19.6549C34.1504 19.4618 34.3068 19.3054 34.4999 19.3054C34.693 19.3054 34.8494 19.4618 34.8494 19.6549V21.6512C34.8494 21.8443 34.693 22.0007 34.4999 22.0007Z" fill="#9EA5B6"/>
<path d="M34.4999 13.6953C34.3068 13.6953 34.1504 13.5389 34.1504 13.3458V11.3495C34.1504 11.1564 34.3068 11 34.4999 11C34.693 11 34.8494 11.1564 34.8494 11.3495V13.3458C34.8494 13.5389 34.693 13.6953 34.4999 13.6953Z" fill="#9EA5B6"/>
<path d="M31.3458 16.8494H29.3495C29.1564 16.8494 29 16.693 29 16.4999C29 16.3068 29.1564 16.1504 29.3495 16.1504H31.3458C31.5389 16.1504 31.6953 16.3068 31.6953 16.4999C31.6953 16.693 31.5389 16.8494 31.3458 16.8494Z" fill="#9EA5B6"/>
<path d="M39.6504 16.8494H37.6542C37.4611 16.8494 37.3047 16.693 37.3047 16.4999C37.3047 16.3068 37.4611 16.1504 37.6542 16.1504H39.6504C39.8436 16.1504 40 16.3068 40 16.4999C40 16.693 39.8436 16.8494 39.6504 16.8494Z" fill="#9EA5B6"/>
<path d="M43.0003 38.0005C42.8598 38.0005 42.7461 37.8867 42.7461 37.7463V36.2945C42.7461 36.154 42.8598 36.0403 43.0003 36.0403C43.1407 36.0403 43.2545 36.154 43.2545 36.2945V37.7463C43.2545 37.8867 43.1407 38.0005 43.0003 38.0005Z" fill="#9EA5B6"/>
<path d="M43.0003 31.9602C42.8598 31.9602 42.7461 31.8465 42.7461 31.706V30.2542C42.7461 30.1137 42.8598 30 43.0003 30C43.1407 30 43.2545 30.1137 43.2545 30.2542V31.706C43.2545 31.8465 43.1407 31.9602 43.0003 31.9602Z" fill="#9EA5B6"/>
<path d="M40.706 34.2541H39.2542C39.1137 34.2541 39 34.1404 39 33.9999C39 33.8595 39.1137 33.7457 39.2542 33.7457H40.706C40.8465 33.7457 40.9602 33.8595 40.9602 33.9999C40.9602 34.1404 40.8465 34.2541 40.706 34.2541Z" fill="#9EA5B6"/>
<path d="M46.746 34.2541H45.2942C45.1538 34.2541 45.04 34.1404 45.04 33.9999C45.04 33.8595 45.1538 33.7457 45.2942 33.7457H46.746C46.8865 33.7457 47.0002 33.8595 47.0002 33.9999C47.0002 34.1404 46.8865 34.2541 46.746 34.2541Z" fill="#9EA5B6"/>
<path d="M48.0003 16.0005C47.8598 16.0005 47.7461 15.8867 47.7461 15.7463V14.2945C47.7461 14.154 47.8598 14.0403 48.0003 14.0403C48.1407 14.0403 48.2545 14.154 48.2545 14.2945V15.7463C48.2545 15.8867 48.1407 16.0005 48.0003 16.0005Z" fill="#9EA5B6"/>
<path d="M48.0003 9.9602C47.8598 9.9602 47.7461 9.84646 47.7461 9.706V8.25419C47.7461 8.11373 47.8598 8 48.0003 8C48.1407 8 48.2545 8.11373 48.2545 8.25419V9.706C48.2545 9.84646 48.1407 9.9602 48.0003 9.9602Z" fill="#9EA5B6"/>
<path d="M45.706 12.2541H44.2542C44.1137 12.2541 44 12.1404 44 11.9999C44 11.8595 44.1137 11.7457 44.2542 11.7457H45.706C45.8465 11.7457 45.9602 11.8595 45.9602 11.9999C45.9602 12.1404 45.8465 12.2541 45.706 12.2541Z" fill="#9EA5B6"/>
<path d="M51.746 12.2541H50.2942C50.1538 12.2541 50.04 12.1404 50.04 11.9999C50.04 11.8595 50.1538 11.7457 50.2942 11.7457H51.746C51.8865 11.7457 52.0002 11.8595 52.0002 11.9999C52.0002 12.1404 51.8865 12.2541 51.746 12.2541Z" fill="#9EA5B6"/>
</svg>
