<svg width="18" height="17" viewBox="0 0 18 17" fill="none" xmlns="http://www.w3.org/2000/svg">
<path d="M1.6875 4.5625C1.6875 10.7757 6.7243 15.8125 12.9375 15.8125H14.625C15.557 15.8125 16.3125 15.057 16.3125 14.125V13.0963C16.3125 12.7091 16.049 12.3716 15.6734 12.2777L12.356 11.4484C12.0267 11.366 11.68 11.4891 11.4764 11.7607L10.7487 12.7309C10.5375 13.0125 10.1723 13.137 9.84176 13.0159C7.36154 12.1074 5.39262 10.1385 4.48407 7.65824C4.363 7.32774 4.48752 6.96249 4.7691 6.7513L5.73932 6.02364C6.0109 5.81995 6.13396 5.47334 6.05162 5.144L5.22228 1.82661C5.12838 1.451 4.79089 1.1875 4.40372 1.1875H3.375C2.44302 1.1875 1.6875 1.94302 1.6875 2.875V4.5625Z" stroke="#0F172A" stroke-width="1.5" stroke-linecap="round" stroke-linejoin="round"/>
</svg>
