<svg width="22" height="22" viewBox="0 0 22 22" fill="none" xmlns="http://www.w3.org/2000/svg">
<path d="M11.0001 2.54163C9.88932 2.54163 8.78943 2.76041 7.76322 3.18548C6.73701 3.61055 5.80457 4.23359 5.01914 5.01902C4.23371 5.80444 3.61067 6.73688 3.1856 7.7631C2.76053 8.78931 2.54175 9.8892 2.54175 11C2.54175 12.1107 2.76053 13.2106 3.1856 14.2368C3.61067 15.263 4.23371 16.1955 5.01914 16.9809C5.80457 17.7663 6.73701 18.3894 7.76322 18.8144C8.78943 19.2395 9.88932 19.4583 11.0001 19.4583C13.2434 19.4583 15.3948 18.5672 16.981 16.9809C18.5673 15.3947 19.4584 13.2433 19.4584 11C19.4584 8.75667 18.5673 6.60526 16.981 5.01902C15.3948 3.43277 13.2434 2.54163 11.0001 2.54163ZM0.791748 11C0.791748 8.29254 1.86727 5.69601 3.7817 3.78158C5.69613 1.86714 8.29266 0.791626 11.0001 0.791626C13.7075 0.791626 16.304 1.86714 18.2185 3.78158C20.1329 5.69601 21.2084 8.29254 21.2084 11C21.2084 13.7074 20.1329 16.3039 18.2185 18.2183C16.304 20.1328 13.7075 21.2083 11.0001 21.2083C8.29266 21.2083 5.69613 20.1328 3.7817 18.2183C1.86727 16.3039 0.791748 13.7074 0.791748 11ZM11.0001 7.20829C11.4461 7.21002 11.8747 7.38202 12.1982 7.68914C12.5217 7.99626 12.7157 8.41532 12.7406 8.86069C12.7654 9.30606 12.6193 9.74411 12.332 10.0853C12.0448 10.4266 11.638 10.6452 11.1949 10.6966C10.6524 10.7573 10.1251 11.21 10.1251 11.875V13.3333H11.8751V12.3475C12.5089 12.1838 13.0841 11.8457 13.5354 11.3715C13.9867 10.8973 14.296 10.3061 14.4281 9.66495C14.5602 9.02382 14.5098 8.35848 14.2828 7.74452C14.0557 7.13056 13.661 6.59259 13.1435 6.1917C12.626 5.79082 12.0065 5.54309 11.3552 5.47667C10.704 5.41024 10.0472 5.52778 9.45944 5.81592C8.87166 6.10407 8.37648 6.55128 8.03013 7.10675C7.68377 7.66222 7.50014 8.30369 7.50008 8.95829H9.25008C9.25008 8.49416 9.43446 8.04905 9.76265 7.72086C10.0908 7.39267 10.536 7.20829 11.0001 7.20829ZM10.1251 14.5V16.25H11.8751V14.5H10.1251Z" fill="white"/>
</svg>
