<svg width="9" height="8" viewBox="0 0 9 8" fill="none" xmlns="http://www.w3.org/2000/svg">
<path fill-rule="evenodd" clip-rule="evenodd" d="M1.1617 3.13748C1.6557 1.3597 3.55076 0.304692 5.39442 0.781046C6.00313 0.938322 6.52928 1.24233 6.94393 1.64292L7.82086 2.48851H6.35381C6.16294 2.48851 6.0082 2.63772 6.0082 2.82177C6.0082 3.00581 6.16294 3.15502 6.35381 3.15502H8.6544C8.74607 3.15502 8.83398 3.1199 8.89879 3.05739C8.96361 2.99489 9.00001 2.91011 9 2.82172V0.603381C9 0.419332 8.84527 0.27013 8.6544 0.27013C8.46353 0.27013 8.3088 0.419332 8.3088 0.603381V2.01644L7.43314 1.17207C6.93494 0.69082 6.30248 0.325654 5.57332 0.137255C3.36092 -0.43437 1.08686 0.831646 0.494048 2.96498C0.444647 3.14276 0.554058 3.32549 0.738424 3.37313C0.92279 3.42076 1.1123 3.31526 1.1617 3.13748ZM8.26146 4.62687C8.07709 4.57924 7.88759 4.68474 7.83818 4.86252C7.34418 6.6403 5.44912 7.69531 3.60546 7.21895C2.99675 7.06168 2.47061 6.75768 2.05596 6.35709L1.17957 5.51147H2.64621C2.83708 5.51147 2.99181 5.36227 2.99181 5.17822C2.99181 4.99417 2.83708 4.84497 2.64621 4.84497L0.3456 4.84497C0.154731 4.84497 0 4.99417 0 5.17822V7.39662C0 7.58067 0.154731 7.72987 0.3456 7.72987C0.53647 7.72987 0.691201 7.58067 0.691201 7.39662V5.98313L1.56675 6.82794C2.06497 7.30925 2.69734 7.67433 3.42656 7.86274C5.63896 8.43437 7.91302 7.16835 8.50583 5.03502C8.55523 4.85724 8.44582 4.67451 8.26146 4.62687Z" fill="#3F73D9"/>
</svg>
