<svg width="24" height="24" viewBox="0 0 24 24" fill="#1D1D1F" xmlns="http://www.w3.org/2000/svg">
    <rect y="24" width="24" height="24" rx="2" transform="rotate(-90 0 24)" fill="#F0F3F5" />
    <path
        d="M6 10.5C6 13.5 8.5 16 11.5 16C12.6 16 13.6 15.7 14.5 15.1L17.5 18.5L18.6 17.5L15.7 14.1C16.6 13.1 17.1 11.9 17.1 10.5C17.1 7.5 14.6 5 11.6 5C8.5 5 6 7.5 6 10.5ZM15.5 10.5C15.5 12.7 13.7 14.5 11.5 14.5C9.3 14.5 7.5 12.7 7.5 10.5C7.5 8.3 9.3 6.5 11.5 6.5C13.7 6.5 15.5 8.3 15.5 10.5Z"
        fill="#999999" />
</svg>