<svg xmlns="http://www.w3.org/2000/svg" xmlns:xlink="http://www.w3.org/1999/xlink" fill="none" viewBox="0 0 29 29">
  <path fill="#F5F5F5" d="M0 0h29v29H0z"/>
  <path fill="url(#a)" d="M-1070-641H90v928h-1160z"/>
  <g filter="url(#b)">
    <path fill="#fff" d="M-213-641H90v928h-303z"/>
  </g>
  <circle cx="14.5" cy="14.5" r="14.5" fill="#E4F5CB"/>
  <path stroke="#5CAA0A" stroke-linecap="round" stroke-linejoin="round" stroke-width="1.2" d="M17.963 11.875h2.404c.79 0 1.497.501 1.58 1.239.035.304.053.614.053.928 0 2.056-.763 3.946-2.038 5.432-.298.347-.759.526-1.234.526h-3.09c-.371 0-.741-.056-1.094-.167l-2.396-.75a3.67 3.67 0 0 0-1.094-.166h-.996m7.905-7.042c-.476 0-.762-.523-.558-.926a5.123 5.123 0 0 0 .556-2.324c0-.897-.774-1.625-1.73-1.625-.319 0-.577.243-.577.542v.457c0 .414-.084.823-.248 1.207-.234.549-.716.961-1.271 1.24a6.868 6.868 0 0 0-2.201 1.732c-.383.458-.942.78-1.563.78h-.295m7.887-1.083h-1.694m-6.21 7.042a.437.437 0 0 0-.04-.107 6.151 6.151 0 0 1 .057-5.852m-.018 5.959a.449.449 0 0 1-.442.541h-.698c-.684 0-1.318-.374-1.518-.988a8.177 8.177 0 0 1-.4-2.532c0-1.122.227-2.193.64-3.177.234-.559.835-.886 1.475-.886h.81c.363 0 .573.402.384.693a6.44 6.44 0 0 0-.233.39"/>
  <defs>
    <pattern id="a" width="1" height="1" patternContentUnits="objectBoundingBox">
      <use xlink:href="#c" transform="scale(0)"/>
    </pattern>
    <filter id="b" width="327" height="952" x="-225" y="-649" color-interpolation-filters="sRGB" filterUnits="userSpaceOnUse">
      <feFlood flood-opacity="0" result="BackgroundImageFix"/>
      <feColorMatrix in="SourceAlpha" result="hardAlpha" values="0 0 0 0 0 0 0 0 0 0 0 0 0 0 0 0 0 0 127 0"/>
      <feMorphology in="SourceAlpha" operator="dilate" radius="8" result="effect1_dropShadow_58_120"/>
      <feOffset dy="4"/>
      <feGaussianBlur stdDeviation="2"/>
      <feComposite in2="hardAlpha" operator="out"/>
      <feColorMatrix values="0 0 0 0 0.371717 0 0 0 0 0.672951 0 0 0 0 0.919415 0 0 0 0.1 0"/>
      <feBlend in2="BackgroundImageFix" result="effect1_dropShadow_58_120"/>
      <feBlend in="SourceGraphic" in2="effect1_dropShadow_58_120" result="shape"/>
    </filter>
  </defs>
</svg>