<svg xmlns="http://www.w3.org/2000/svg" xmlns:xlink="http://www.w3.org/1999/xlink" fill="none" viewBox="0 0 29 29">
  <path fill="#F5F5F5" d="M0 0h29v29H0z"/>
  <path fill="url(#a)" d="M-1108-641H52v928h-1160z"/>
  <g filter="url(#b)">
    <path fill="#fff" d="M-251-641H52v928h-303z"/>
  </g>
  <circle cx="14.5" cy="14.5" r="14.5" fill="#FFE4E4"/>
  <path stroke="#C71A1A" stroke-linecap="round" stroke-linejoin="round" stroke-width="1.2" d="M11.04 16.75h-2.4c-.8 0-1.5-.54-1.59-1.33a9.36 9.36 0 0 1 1.99-6.85c.3-.38.76-.57 1.23-.57h3.1c.36 0 .73.06 1.09.18l2.4.8c.34.13.71.19 1.09.19h1m-7.91 7.58c.47 0 .76.56.55 1-.35.76-.55 1.6-.55 2.5 0 .97.77 1.75 1.73 1.75.32 0 .58-.26.58-.58v-.5c0-.44.08-.88.24-1.3.24-.59.72-1.03 1.28-1.33.85-.46 1.6-1.1 2.2-1.87.38-.49.94-.84 1.56-.84h.3m-7.9 1.17h1.7m6.21-7.58.04.11a7.04 7.04 0 0 1-.06 6.3m.02-6.41c-.06-.29.14-.59.44-.59h.7c.69 0 1.32.4 1.52 1.07a9.43 9.43 0 0 1-.24 6.15c-.23.6-.83.95-1.47.95h-.81c-.37 0-.58-.43-.39-.75.08-.13.16-.27.23-.42"/>
  <defs>
    <pattern id="a" width="1" height="1" patternContentUnits="objectBoundingBox">
      <use xlink:href="#c" transform="scale(0)"/>
    </pattern>
    <filter id="b" width="327" height="952" x="-263" y="-649" color-interpolation-filters="sRGB" filterUnits="userSpaceOnUse">
      <feFlood flood-opacity="0" result="BackgroundImageFix"/>
      <feColorMatrix in="SourceAlpha" result="hardAlpha" values="0 0 0 0 0 0 0 0 0 0 0 0 0 0 0 0 0 0 127 0"/>
      <feMorphology in="SourceAlpha" operator="dilate" radius="8" result="effect1_dropShadow_58_120"/>
      <feOffset dy="4"/>
      <feGaussianBlur stdDeviation="2"/>
      <feComposite in2="hardAlpha" operator="out"/>
      <feColorMatrix values="0 0 0 0 0.371717 0 0 0 0 0.672951 0 0 0 0 0.919415 0 0 0 0.1 0"/>
      <feBlend in2="BackgroundImageFix" result="effect1_dropShadow_58_120"/>
      <feBlend in="SourceGraphic" in2="effect1_dropShadow_58_120" result="shape"/>
    </filter>
  </defs>
</svg>